<mxfile host="app.diagrams.net" agent="Mozilla/5.0 (X11; Linux x86_64) AppleWebKit/537.36 (KHTML, like Gecko) Chrome/139.0.0.0 Safari/537.36" version="28.1.2">
  <diagram name="Page-1" id="e56a1550-8fbb-45ad-956c-1786394a9013">
    <mxGraphModel grid="0" page="0" gridSize="10" guides="0" tooltips="1" connect="1" arrows="1" fold="1" pageScale="1" pageWidth="1100" pageHeight="850" background="none" math="0" shadow="0">
      <root>
        <mxCell id="0" />
        <mxCell id="1" parent="0" />
        <mxCell id="2e49270ec7c68f3f-19" value="organizations" style="swimlane;html=1;fontStyle=0;childLayout=stackLayout;horizontal=1;startSize=26;fillColor=#e0e0e0;horizontalStack=0;resizeParent=1;resizeLast=0;collapsible=1;marginBottom=0;swimlaneFillColor=#ffffff;align=center;rounded=0;shadow=0;comic=0;labelBackgroundColor=none;strokeWidth=1;fontFamily=Verdana;fontSize=14" vertex="1" parent="1">
          <mxGeometry x="440" y="520" width="160" height="190" as="geometry" />
        </mxCell>
        <mxCell id="2e49270ec7c68f3f-20" value="id" style="shape=partialRectangle;top=0;left=0;right=0;bottom=1;html=1;align=left;verticalAlign=middle;fillColor=none;spacingLeft=34;spacingRight=4;whiteSpace=wrap;overflow=hidden;rotatable=0;points=[[0,0.5],[1,0.5]];portConstraint=eastwest;dropTarget=0;fontStyle=5;" vertex="1" parent="2e49270ec7c68f3f-19">
          <mxGeometry y="26" width="160" height="30" as="geometry" />
        </mxCell>
        <mxCell id="2e49270ec7c68f3f-21" value="&lt;b&gt;PK&lt;/b&gt;" style="shape=partialRectangle;top=0;left=0;bottom=0;html=1;fillColor=none;align=left;verticalAlign=middle;spacingLeft=4;spacingRight=4;whiteSpace=wrap;overflow=hidden;rotatable=0;points=[];portConstraint=eastwest;part=1;" vertex="1" connectable="0" parent="2e49270ec7c68f3f-20">
          <mxGeometry width="30" height="30" as="geometry" />
        </mxCell>
        <mxCell id="2e49270ec7c68f3f-22" value="name" style="shape=partialRectangle;top=0;left=0;right=0;bottom=0;html=1;align=left;verticalAlign=top;fillColor=none;spacingLeft=34;spacingRight=4;whiteSpace=wrap;overflow=hidden;rotatable=0;points=[[0,0.5],[1,0.5]];portConstraint=eastwest;dropTarget=0;" vertex="1" parent="2e49270ec7c68f3f-19">
          <mxGeometry y="56" width="160" height="26" as="geometry" />
        </mxCell>
        <mxCell id="2e49270ec7c68f3f-23" value="str" style="shape=partialRectangle;top=0;left=0;bottom=0;html=1;fillColor=none;align=left;verticalAlign=top;spacingLeft=4;spacingRight=4;whiteSpace=wrap;overflow=hidden;rotatable=0;points=[];portConstraint=eastwest;part=1;" vertex="1" connectable="0" parent="2e49270ec7c68f3f-22">
          <mxGeometry width="30" height="26" as="geometry" />
        </mxCell>
        <mxCell id="J22njvI_X3nOLMH5hTBZ-119" value="description" style="shape=partialRectangle;top=0;left=0;right=0;bottom=0;html=1;align=left;verticalAlign=top;fillColor=none;spacingLeft=34;spacingRight=4;whiteSpace=wrap;overflow=hidden;rotatable=0;points=[[0,0.5],[1,0.5]];portConstraint=eastwest;dropTarget=0;" vertex="1" parent="2e49270ec7c68f3f-19">
          <mxGeometry y="82" width="160" height="26" as="geometry" />
        </mxCell>
        <mxCell id="J22njvI_X3nOLMH5hTBZ-120" value="!str" style="shape=partialRectangle;top=0;left=0;bottom=0;html=1;fillColor=none;align=left;verticalAlign=top;spacingLeft=4;spacingRight=4;whiteSpace=wrap;overflow=hidden;rotatable=0;points=[];portConstraint=eastwest;part=1;" connectable="0" vertex="1" parent="J22njvI_X3nOLMH5hTBZ-119">
          <mxGeometry width="30" height="26" as="geometry" />
        </mxCell>
        <mxCell id="J22njvI_X3nOLMH5hTBZ-117" value="website" style="shape=partialRectangle;top=0;left=0;right=0;bottom=0;html=1;align=left;verticalAlign=top;fillColor=none;spacingLeft=34;spacingRight=4;whiteSpace=wrap;overflow=hidden;rotatable=0;points=[[0,0.5],[1,0.5]];portConstraint=eastwest;dropTarget=0;" vertex="1" parent="2e49270ec7c68f3f-19">
          <mxGeometry y="108" width="160" height="26" as="geometry" />
        </mxCell>
        <mxCell id="J22njvI_X3nOLMH5hTBZ-118" value="!str" style="shape=partialRectangle;top=0;left=0;bottom=0;html=1;fillColor=none;align=left;verticalAlign=top;spacingLeft=4;spacingRight=4;whiteSpace=wrap;overflow=hidden;rotatable=0;points=[];portConstraint=eastwest;part=1;" connectable="0" vertex="1" parent="J22njvI_X3nOLMH5hTBZ-117">
          <mxGeometry width="30" height="26" as="geometry" />
        </mxCell>
        <mxCell id="J22njvI_X3nOLMH5hTBZ-123" value="address" style="shape=partialRectangle;top=0;left=0;right=0;bottom=0;html=1;align=left;verticalAlign=top;fillColor=none;spacingLeft=34;spacingRight=4;whiteSpace=wrap;overflow=hidden;rotatable=0;points=[[0,0.5],[1,0.5]];portConstraint=eastwest;dropTarget=0;" vertex="1" parent="2e49270ec7c68f3f-19">
          <mxGeometry y="134" width="160" height="26" as="geometry" />
        </mxCell>
        <mxCell id="J22njvI_X3nOLMH5hTBZ-124" value="!str" style="shape=partialRectangle;top=0;left=0;bottom=0;html=1;fillColor=none;align=left;verticalAlign=top;spacingLeft=4;spacingRight=4;whiteSpace=wrap;overflow=hidden;rotatable=0;points=[];portConstraint=eastwest;part=1;" connectable="0" vertex="1" parent="J22njvI_X3nOLMH5hTBZ-123">
          <mxGeometry width="30" height="26" as="geometry" />
        </mxCell>
        <mxCell id="2e49270ec7c68f3f-24" value="created_at" style="shape=partialRectangle;top=0;left=0;right=0;bottom=0;html=1;align=left;verticalAlign=top;fillColor=none;spacingLeft=34;spacingRight=4;whiteSpace=wrap;overflow=hidden;rotatable=0;points=[[0,0.5],[1,0.5]];portConstraint=eastwest;dropTarget=0;" vertex="1" parent="2e49270ec7c68f3f-19">
          <mxGeometry y="160" width="160" height="28" as="geometry" />
        </mxCell>
        <mxCell id="2e49270ec7c68f3f-25" value="tsp" style="shape=partialRectangle;top=0;left=0;bottom=0;html=1;fillColor=none;align=left;verticalAlign=top;spacingLeft=4;spacingRight=4;whiteSpace=wrap;overflow=hidden;rotatable=0;points=[];portConstraint=eastwest;part=1;" vertex="1" connectable="0" parent="2e49270ec7c68f3f-24">
          <mxGeometry width="30" height="28" as="geometry" />
        </mxCell>
        <mxCell id="2e49270ec7c68f3f-80" value="App Cognito" style="swimlane;html=1;fontStyle=0;childLayout=stackLayout;horizontal=1;startSize=26;fillColor=light-dark(#60A917,#00FF00);horizontalStack=0;resizeParent=1;resizeLast=0;collapsible=1;marginBottom=0;swimlaneFillColor=#ffffff;align=center;rounded=0;shadow=0;comic=0;labelBackgroundColor=none;strokeWidth=1;fontFamily=Verdana;fontSize=14;fontColor=#ffffff;strokeColor=#2D7600;" vertex="1" parent="1">
          <mxGeometry x="190" y="470" width="160" height="226" as="geometry" />
        </mxCell>
        <mxCell id="2e49270ec7c68f3f-81" value="id" style="shape=partialRectangle;top=0;left=0;right=0;bottom=1;html=1;align=left;verticalAlign=middle;fillColor=none;spacingLeft=34;spacingRight=4;whiteSpace=wrap;overflow=hidden;rotatable=0;points=[[0,0.5],[1,0.5]];portConstraint=eastwest;dropTarget=0;fontStyle=5;" vertex="1" parent="2e49270ec7c68f3f-80">
          <mxGeometry y="26" width="160" height="30" as="geometry" />
        </mxCell>
        <mxCell id="2e49270ec7c68f3f-82" value="&lt;b&gt;PK&lt;/b&gt;" style="shape=partialRectangle;top=0;left=0;bottom=0;html=1;fillColor=none;align=left;verticalAlign=middle;spacingLeft=4;spacingRight=4;whiteSpace=wrap;overflow=hidden;rotatable=0;points=[];portConstraint=eastwest;part=1;" vertex="1" connectable="0" parent="2e49270ec7c68f3f-81">
          <mxGeometry width="30" height="30" as="geometry" />
        </mxCell>
        <mxCell id="J22njvI_X3nOLMH5hTBZ-35" value="organization_id" style="shape=partialRectangle;top=0;left=0;right=0;bottom=1;html=1;align=left;verticalAlign=middle;fillColor=none;spacingLeft=34;spacingRight=4;whiteSpace=wrap;overflow=hidden;rotatable=0;points=[[0,0.5],[1,0.5]];portConstraint=eastwest;dropTarget=0;fontStyle=5;" vertex="1" parent="2e49270ec7c68f3f-80">
          <mxGeometry y="56" width="160" height="30" as="geometry" />
        </mxCell>
        <mxCell id="J22njvI_X3nOLMH5hTBZ-36" value="&lt;b&gt;FK&lt;/b&gt;" style="shape=partialRectangle;top=0;left=0;bottom=0;html=1;fillColor=none;align=left;verticalAlign=middle;spacingLeft=4;spacingRight=4;whiteSpace=wrap;overflow=hidden;rotatable=0;points=[];portConstraint=eastwest;part=1;" connectable="0" vertex="1" parent="J22njvI_X3nOLMH5hTBZ-35">
          <mxGeometry width="30" height="30" as="geometry" />
        </mxCell>
        <mxCell id="2h3VSlBN1-Aui4E00N1O-176" value="email" style="shape=partialRectangle;top=0;left=0;right=0;bottom=0;html=1;align=left;verticalAlign=top;fillColor=none;spacingLeft=34;spacingRight=4;whiteSpace=wrap;overflow=hidden;rotatable=0;points=[[0,0.5],[1,0.5]];portConstraint=eastwest;dropTarget=0;" vertex="1" parent="2e49270ec7c68f3f-80">
          <mxGeometry y="86" width="160" height="26" as="geometry" />
        </mxCell>
        <mxCell id="2h3VSlBN1-Aui4E00N1O-177" value="str" style="shape=partialRectangle;top=0;left=0;bottom=0;html=1;fillColor=none;align=left;verticalAlign=top;spacingLeft=4;spacingRight=4;whiteSpace=wrap;overflow=hidden;rotatable=0;points=[];portConstraint=eastwest;part=1;" connectable="0" vertex="1" parent="2h3VSlBN1-Aui4E00N1O-176">
          <mxGeometry width="30" height="26" as="geometry" />
        </mxCell>
        <mxCell id="2e49270ec7c68f3f-83" value="first_name" style="shape=partialRectangle;top=0;left=0;right=0;bottom=0;html=1;align=left;verticalAlign=top;fillColor=none;spacingLeft=34;spacingRight=4;whiteSpace=wrap;overflow=hidden;rotatable=0;points=[[0,0.5],[1,0.5]];portConstraint=eastwest;dropTarget=0;" vertex="1" parent="2e49270ec7c68f3f-80">
          <mxGeometry y="112" width="160" height="26" as="geometry" />
        </mxCell>
        <mxCell id="2e49270ec7c68f3f-84" value="!str" style="shape=partialRectangle;top=0;left=0;bottom=0;html=1;fillColor=none;align=left;verticalAlign=top;spacingLeft=4;spacingRight=4;whiteSpace=wrap;overflow=hidden;rotatable=0;points=[];portConstraint=eastwest;part=1;" vertex="1" connectable="0" parent="2e49270ec7c68f3f-83">
          <mxGeometry width="30" height="26" as="geometry" />
        </mxCell>
        <mxCell id="2e49270ec7c68f3f-85" value="last_name" style="shape=partialRectangle;top=0;left=0;right=0;bottom=0;html=1;align=left;verticalAlign=top;fillColor=none;spacingLeft=34;spacingRight=4;whiteSpace=wrap;overflow=hidden;rotatable=0;points=[[0,0.5],[1,0.5]];portConstraint=eastwest;dropTarget=0;" vertex="1" parent="2e49270ec7c68f3f-80">
          <mxGeometry y="138" width="160" height="26" as="geometry" />
        </mxCell>
        <mxCell id="2e49270ec7c68f3f-86" value="!str" style="shape=partialRectangle;top=0;left=0;bottom=0;html=1;fillColor=none;align=left;verticalAlign=top;spacingLeft=4;spacingRight=4;whiteSpace=wrap;overflow=hidden;rotatable=0;points=[];portConstraint=eastwest;part=1;" vertex="1" connectable="0" parent="2e49270ec7c68f3f-85">
          <mxGeometry width="30" height="26" as="geometry" />
        </mxCell>
        <mxCell id="2e49270ec7c68f3f-87" value="organization" style="shape=partialRectangle;top=0;left=0;right=0;bottom=0;html=1;align=left;verticalAlign=top;fillColor=none;spacingLeft=34;spacingRight=4;whiteSpace=wrap;overflow=hidden;rotatable=0;points=[[0,0.5],[1,0.5]];portConstraint=eastwest;dropTarget=0;" vertex="1" parent="2e49270ec7c68f3f-80">
          <mxGeometry y="164" width="160" height="26" as="geometry" />
        </mxCell>
        <mxCell id="2e49270ec7c68f3f-88" value="!str" style="shape=partialRectangle;top=0;left=0;bottom=0;html=1;fillColor=none;align=left;verticalAlign=top;spacingLeft=4;spacingRight=4;whiteSpace=wrap;overflow=hidden;rotatable=0;points=[];portConstraint=eastwest;part=1;" vertex="1" connectable="0" parent="2e49270ec7c68f3f-87">
          <mxGeometry width="30" height="26" as="geometry" />
        </mxCell>
        <mxCell id="2h3VSlBN1-Aui4E00N1O-174" value="created_at" style="shape=partialRectangle;top=0;left=0;right=0;bottom=0;html=1;align=left;verticalAlign=top;fillColor=none;spacingLeft=34;spacingRight=4;whiteSpace=wrap;overflow=hidden;rotatable=0;points=[[0,0.5],[1,0.5]];portConstraint=eastwest;dropTarget=0;" vertex="1" parent="2e49270ec7c68f3f-80">
          <mxGeometry y="190" width="160" height="26" as="geometry" />
        </mxCell>
        <mxCell id="2h3VSlBN1-Aui4E00N1O-175" value="tsp" style="shape=partialRectangle;top=0;left=0;bottom=0;html=1;fillColor=none;align=left;verticalAlign=top;spacingLeft=4;spacingRight=4;whiteSpace=wrap;overflow=hidden;rotatable=0;points=[];portConstraint=eastwest;part=1;" connectable="0" vertex="1" parent="2h3VSlBN1-Aui4E00N1O-174">
          <mxGeometry width="30" height="26" as="geometry" />
        </mxCell>
        <mxCell id="2e49270ec7c68f3f-89" value="" style="shape=partialRectangle;top=0;left=0;right=0;bottom=0;html=1;align=left;verticalAlign=top;fillColor=none;spacingLeft=34;spacingRight=4;whiteSpace=wrap;overflow=hidden;rotatable=0;points=[[0,0.5],[1,0.5]];portConstraint=eastwest;dropTarget=0;" vertex="1" parent="2e49270ec7c68f3f-80">
          <mxGeometry y="216" width="160" height="10" as="geometry" />
        </mxCell>
        <mxCell id="2e49270ec7c68f3f-90" value="" style="shape=partialRectangle;top=0;left=0;bottom=0;html=1;fillColor=none;align=left;verticalAlign=top;spacingLeft=4;spacingRight=4;whiteSpace=wrap;overflow=hidden;rotatable=0;points=[];portConstraint=eastwest;part=1;" vertex="1" connectable="0" parent="2e49270ec7c68f3f-89">
          <mxGeometry width="30" height="10" as="geometry" />
        </mxCell>
        <mxCell id="J22njvI_X3nOLMH5hTBZ-15" value="credit_transactions" style="swimlane;html=1;fontStyle=0;childLayout=stackLayout;horizontal=1;startSize=26;fillColor=#e0e0e0;horizontalStack=0;resizeParent=1;resizeLast=0;collapsible=1;marginBottom=0;swimlaneFillColor=#ffffff;align=center;rounded=0;shadow=0;comic=0;labelBackgroundColor=none;strokeWidth=1;fontFamily=Verdana;fontSize=14" vertex="1" parent="1">
          <mxGeometry x="690" y="260" width="160" height="320" as="geometry" />
        </mxCell>
        <mxCell id="J22njvI_X3nOLMH5hTBZ-16" value="id" style="shape=partialRectangle;top=0;left=0;right=0;bottom=1;html=1;align=left;verticalAlign=middle;fillColor=none;spacingLeft=34;spacingRight=4;whiteSpace=wrap;overflow=hidden;rotatable=0;points=[[0,0.5],[1,0.5]];portConstraint=eastwest;dropTarget=0;fontStyle=5;" vertex="1" parent="J22njvI_X3nOLMH5hTBZ-15">
          <mxGeometry y="26" width="160" height="30" as="geometry" />
        </mxCell>
        <mxCell id="J22njvI_X3nOLMH5hTBZ-17" value="&lt;b&gt;PK&lt;/b&gt;" style="shape=partialRectangle;top=0;left=0;bottom=0;html=1;fillColor=none;align=left;verticalAlign=middle;spacingLeft=4;spacingRight=4;whiteSpace=wrap;overflow=hidden;rotatable=0;points=[];portConstraint=eastwest;part=1;" connectable="0" vertex="1" parent="J22njvI_X3nOLMH5hTBZ-16">
          <mxGeometry width="30" height="30" as="geometry" />
        </mxCell>
        <mxCell id="J22njvI_X3nOLMH5hTBZ-112" value="chat_id" style="shape=partialRectangle;top=0;left=0;right=0;bottom=1;html=1;align=left;verticalAlign=middle;fillColor=none;spacingLeft=34;spacingRight=4;whiteSpace=wrap;overflow=hidden;rotatable=0;points=[[0,0.5],[1,0.5]];portConstraint=eastwest;dropTarget=0;fontStyle=5;" vertex="1" parent="J22njvI_X3nOLMH5hTBZ-15">
          <mxGeometry y="56" width="160" height="30" as="geometry" />
        </mxCell>
        <mxCell id="J22njvI_X3nOLMH5hTBZ-113" value="&lt;b&gt;!FK&lt;/b&gt;" style="shape=partialRectangle;top=0;left=0;bottom=0;html=1;fillColor=none;align=left;verticalAlign=middle;spacingLeft=4;spacingRight=4;whiteSpace=wrap;overflow=hidden;rotatable=0;points=[];portConstraint=eastwest;part=1;" connectable="0" vertex="1" parent="J22njvI_X3nOLMH5hTBZ-112">
          <mxGeometry width="30" height="30" as="geometry" />
        </mxCell>
        <mxCell id="J22njvI_X3nOLMH5hTBZ-104" value="api_key_id" style="shape=partialRectangle;top=0;left=0;right=0;bottom=1;html=1;align=left;verticalAlign=middle;fillColor=none;spacingLeft=34;spacingRight=4;whiteSpace=wrap;overflow=hidden;rotatable=0;points=[[0,0.5],[1,0.5]];portConstraint=eastwest;dropTarget=0;fontStyle=5;" vertex="1" parent="J22njvI_X3nOLMH5hTBZ-15">
          <mxGeometry y="86" width="160" height="30" as="geometry" />
        </mxCell>
        <mxCell id="J22njvI_X3nOLMH5hTBZ-105" value="&lt;b&gt;!FK&lt;/b&gt;" style="shape=partialRectangle;top=0;left=0;bottom=0;html=1;fillColor=none;align=left;verticalAlign=middle;spacingLeft=4;spacingRight=4;whiteSpace=wrap;overflow=hidden;rotatable=0;points=[];portConstraint=eastwest;part=1;" connectable="0" vertex="1" parent="J22njvI_X3nOLMH5hTBZ-104">
          <mxGeometry width="30" height="30" as="geometry" />
        </mxCell>
        <mxCell id="J22njvI_X3nOLMH5hTBZ-102" value="user_id" style="shape=partialRectangle;top=0;left=0;right=0;bottom=1;html=1;align=left;verticalAlign=middle;fillColor=none;spacingLeft=34;spacingRight=4;whiteSpace=wrap;overflow=hidden;rotatable=0;points=[[0,0.5],[1,0.5]];portConstraint=eastwest;dropTarget=0;fontStyle=5;" vertex="1" parent="J22njvI_X3nOLMH5hTBZ-15">
          <mxGeometry y="116" width="160" height="30" as="geometry" />
        </mxCell>
        <mxCell id="J22njvI_X3nOLMH5hTBZ-103" value="&lt;b&gt;!FK&lt;/b&gt;" style="shape=partialRectangle;top=0;left=0;bottom=0;html=1;fillColor=none;align=left;verticalAlign=middle;spacingLeft=4;spacingRight=4;whiteSpace=wrap;overflow=hidden;rotatable=0;points=[];portConstraint=eastwest;part=1;" connectable="0" vertex="1" parent="J22njvI_X3nOLMH5hTBZ-102">
          <mxGeometry width="30" height="30" as="geometry" />
        </mxCell>
        <mxCell id="J22njvI_X3nOLMH5hTBZ-114" value="organization_id" style="shape=partialRectangle;top=0;left=0;right=0;bottom=1;html=1;align=left;verticalAlign=middle;fillColor=none;spacingLeft=34;spacingRight=4;whiteSpace=wrap;overflow=hidden;rotatable=0;points=[[0,0.5],[1,0.5]];portConstraint=eastwest;dropTarget=0;fontStyle=5;" vertex="1" parent="J22njvI_X3nOLMH5hTBZ-15">
          <mxGeometry y="146" width="160" height="30" as="geometry" />
        </mxCell>
        <mxCell id="J22njvI_X3nOLMH5hTBZ-115" value="&lt;b&gt;!FK&lt;/b&gt;" style="shape=partialRectangle;top=0;left=0;bottom=0;html=1;fillColor=none;align=left;verticalAlign=middle;spacingLeft=4;spacingRight=4;whiteSpace=wrap;overflow=hidden;rotatable=0;points=[];portConstraint=eastwest;part=1;" connectable="0" vertex="1" parent="J22njvI_X3nOLMH5hTBZ-114">
          <mxGeometry width="30" height="30" as="geometry" />
        </mxCell>
        <mxCell id="Qyyz4YVC3kcD_8rJBm0w-14" value="transaction_type_id" style="shape=partialRectangle;top=0;left=0;right=0;bottom=1;html=1;align=left;verticalAlign=middle;fillColor=none;spacingLeft=34;spacingRight=4;whiteSpace=wrap;overflow=hidden;rotatable=0;points=[[0,0.5],[1,0.5]];portConstraint=eastwest;dropTarget=0;fontStyle=5;" vertex="1" parent="J22njvI_X3nOLMH5hTBZ-15">
          <mxGeometry y="176" width="160" height="30" as="geometry" />
        </mxCell>
        <mxCell id="Qyyz4YVC3kcD_8rJBm0w-15" value="&lt;b&gt;FK&lt;/b&gt;" style="shape=partialRectangle;top=0;left=0;bottom=0;html=1;fillColor=none;align=left;verticalAlign=middle;spacingLeft=4;spacingRight=4;whiteSpace=wrap;overflow=hidden;rotatable=0;points=[];portConstraint=eastwest;part=1;" connectable="0" vertex="1" parent="Qyyz4YVC3kcD_8rJBm0w-14">
          <mxGeometry width="30" height="30" as="geometry" />
        </mxCell>
        <mxCell id="J22njvI_X3nOLMH5hTBZ-18" value="name" style="shape=partialRectangle;top=0;left=0;right=0;bottom=0;html=1;align=left;verticalAlign=top;fillColor=none;spacingLeft=34;spacingRight=4;whiteSpace=wrap;overflow=hidden;rotatable=0;points=[[0,0.5],[1,0.5]];portConstraint=eastwest;dropTarget=0;" vertex="1" parent="J22njvI_X3nOLMH5hTBZ-15">
          <mxGeometry y="206" width="160" height="26" as="geometry" />
        </mxCell>
        <mxCell id="J22njvI_X3nOLMH5hTBZ-19" value="str" style="shape=partialRectangle;top=0;left=0;bottom=0;html=1;fillColor=none;align=left;verticalAlign=top;spacingLeft=4;spacingRight=4;whiteSpace=wrap;overflow=hidden;rotatable=0;points=[];portConstraint=eastwest;part=1;" connectable="0" vertex="1" parent="J22njvI_X3nOLMH5hTBZ-18">
          <mxGeometry width="30" height="26" as="geometry" />
        </mxCell>
        <mxCell id="J22njvI_X3nOLMH5hTBZ-20" value="description" style="shape=partialRectangle;top=0;left=0;right=0;bottom=0;html=1;align=left;verticalAlign=top;fillColor=none;spacingLeft=34;spacingRight=4;whiteSpace=wrap;overflow=hidden;rotatable=0;points=[[0,0.5],[1,0.5]];portConstraint=eastwest;dropTarget=0;" vertex="1" parent="J22njvI_X3nOLMH5hTBZ-15">
          <mxGeometry y="232" width="160" height="26" as="geometry" />
        </mxCell>
        <mxCell id="J22njvI_X3nOLMH5hTBZ-21" value="!str" style="shape=partialRectangle;top=0;left=0;bottom=0;html=1;fillColor=none;align=left;verticalAlign=top;spacingLeft=4;spacingRight=4;whiteSpace=wrap;overflow=hidden;rotatable=0;points=[];portConstraint=eastwest;part=1;" connectable="0" vertex="1" parent="J22njvI_X3nOLMH5hTBZ-20">
          <mxGeometry width="30" height="26" as="geometry" />
        </mxCell>
        <mxCell id="J22njvI_X3nOLMH5hTBZ-22" value="amount (+/-)" style="shape=partialRectangle;top=0;left=0;right=0;bottom=0;html=1;align=left;verticalAlign=top;fillColor=none;spacingLeft=34;spacingRight=4;whiteSpace=wrap;overflow=hidden;rotatable=0;points=[[0,0.5],[1,0.5]];portConstraint=eastwest;dropTarget=0;" vertex="1" parent="J22njvI_X3nOLMH5hTBZ-15">
          <mxGeometry y="258" width="160" height="26" as="geometry" />
        </mxCell>
        <mxCell id="J22njvI_X3nOLMH5hTBZ-23" value="int" style="shape=partialRectangle;top=0;left=0;bottom=0;html=1;fillColor=none;align=left;verticalAlign=top;spacingLeft=4;spacingRight=4;whiteSpace=wrap;overflow=hidden;rotatable=0;points=[];portConstraint=eastwest;part=1;" connectable="0" vertex="1" parent="J22njvI_X3nOLMH5hTBZ-22">
          <mxGeometry width="30" height="26" as="geometry" />
        </mxCell>
        <mxCell id="J22njvI_X3nOLMH5hTBZ-128" value="created_at" style="shape=partialRectangle;top=0;left=0;right=0;bottom=0;html=1;align=left;verticalAlign=top;fillColor=none;spacingLeft=34;spacingRight=4;whiteSpace=wrap;overflow=hidden;rotatable=0;points=[[0,0.5],[1,0.5]];portConstraint=eastwest;dropTarget=0;" vertex="1" parent="J22njvI_X3nOLMH5hTBZ-15">
          <mxGeometry y="284" width="160" height="26" as="geometry" />
        </mxCell>
        <mxCell id="J22njvI_X3nOLMH5hTBZ-129" value="tsp" style="shape=partialRectangle;top=0;left=0;bottom=0;html=1;fillColor=none;align=left;verticalAlign=top;spacingLeft=4;spacingRight=4;whiteSpace=wrap;overflow=hidden;rotatable=0;points=[];portConstraint=eastwest;part=1;" connectable="0" vertex="1" parent="J22njvI_X3nOLMH5hTBZ-128">
          <mxGeometry width="30" height="26" as="geometry" />
        </mxCell>
        <mxCell id="J22njvI_X3nOLMH5hTBZ-24" value="" style="shape=partialRectangle;top=0;left=0;right=0;bottom=0;html=1;align=left;verticalAlign=top;fillColor=none;spacingLeft=34;spacingRight=4;whiteSpace=wrap;overflow=hidden;rotatable=0;points=[[0,0.5],[1,0.5]];portConstraint=eastwest;dropTarget=0;" vertex="1" parent="J22njvI_X3nOLMH5hTBZ-15">
          <mxGeometry y="310" width="160" height="10" as="geometry" />
        </mxCell>
        <mxCell id="J22njvI_X3nOLMH5hTBZ-25" value="" style="shape=partialRectangle;top=0;left=0;bottom=0;html=1;fillColor=none;align=left;verticalAlign=top;spacingLeft=4;spacingRight=4;whiteSpace=wrap;overflow=hidden;rotatable=0;points=[];portConstraint=eastwest;part=1;" connectable="0" vertex="1" parent="J22njvI_X3nOLMH5hTBZ-24">
          <mxGeometry width="30" height="10" as="geometry" />
        </mxCell>
        <mxCell id="J22njvI_X3nOLMH5hTBZ-30" value="credit_balances" style="swimlane;html=1;fontStyle=0;childLayout=stackLayout;horizontal=1;startSize=26;fillColor=#e0e0e0;horizontalStack=0;resizeParent=1;resizeLast=0;collapsible=1;marginBottom=0;swimlaneFillColor=#ffffff;align=center;rounded=0;shadow=0;comic=0;labelBackgroundColor=none;strokeWidth=1;fontFamily=Verdana;fontSize=14" vertex="1" parent="1">
          <mxGeometry x="690" y="598" width="160" height="112" as="geometry" />
        </mxCell>
        <mxCell id="J22njvI_X3nOLMH5hTBZ-33" value="organization_id" style="shape=partialRectangle;top=0;left=0;right=0;bottom=1;html=1;align=left;verticalAlign=middle;fillColor=none;spacingLeft=60;spacingRight=4;whiteSpace=wrap;overflow=hidden;rotatable=0;points=[[0,0.5],[1,0.5]];portConstraint=eastwest;dropTarget=0;fontStyle=5;" vertex="1" parent="J22njvI_X3nOLMH5hTBZ-30">
          <mxGeometry y="26" width="160" height="30" as="geometry" />
        </mxCell>
        <mxCell id="J22njvI_X3nOLMH5hTBZ-34" value="PK,FK" style="shape=partialRectangle;fontStyle=1;top=0;left=0;bottom=0;html=1;fillColor=none;align=left;verticalAlign=middle;spacingLeft=4;spacingRight=4;whiteSpace=wrap;overflow=hidden;rotatable=0;points=[];portConstraint=eastwest;part=1;" connectable="0" vertex="1" parent="J22njvI_X3nOLMH5hTBZ-33">
          <mxGeometry width="50" height="30" as="geometry" />
        </mxCell>
        <mxCell id="J22njvI_X3nOLMH5hTBZ-42" value="&amp;nbsp; &amp;nbsp; &amp;nbsp; &amp;nbsp;balance" style="shape=partialRectangle;top=0;left=0;right=0;bottom=0;html=1;align=left;verticalAlign=top;fillColor=none;spacingLeft=34;spacingRight=4;whiteSpace=wrap;overflow=hidden;rotatable=0;points=[[0,0.5],[1,0.5]];portConstraint=eastwest;dropTarget=0;" vertex="1" parent="J22njvI_X3nOLMH5hTBZ-30">
          <mxGeometry y="56" width="160" height="28" as="geometry" />
        </mxCell>
        <mxCell id="J22njvI_X3nOLMH5hTBZ-43" value="int" style="shape=partialRectangle;top=0;left=0;bottom=0;html=1;fillColor=none;align=left;verticalAlign=top;spacingLeft=4;spacingRight=4;whiteSpace=wrap;overflow=hidden;rotatable=0;points=[];portConstraint=eastwest;part=1;" connectable="0" vertex="1" parent="J22njvI_X3nOLMH5hTBZ-42">
          <mxGeometry width="50" height="28" as="geometry" />
        </mxCell>
        <mxCell id="J22njvI_X3nOLMH5hTBZ-44" value="&amp;nbsp; &amp;nbsp; &amp;nbsp; &amp;nbsp;updated_at" style="shape=partialRectangle;top=0;left=0;right=0;bottom=0;html=1;align=left;verticalAlign=top;fillColor=none;spacingLeft=34;spacingRight=4;whiteSpace=wrap;overflow=hidden;rotatable=0;points=[[0,0.5],[1,0.5]];portConstraint=eastwest;dropTarget=0;" vertex="1" parent="J22njvI_X3nOLMH5hTBZ-30">
          <mxGeometry y="84" width="160" height="28" as="geometry" />
        </mxCell>
        <mxCell id="J22njvI_X3nOLMH5hTBZ-45" value="tsp" style="shape=partialRectangle;top=0;left=0;bottom=0;html=1;fillColor=none;align=left;verticalAlign=top;spacingLeft=4;spacingRight=4;whiteSpace=wrap;overflow=hidden;rotatable=0;points=[];portConstraint=eastwest;part=1;" connectable="0" vertex="1" parent="J22njvI_X3nOLMH5hTBZ-44">
          <mxGeometry width="50" height="28" as="geometry" />
        </mxCell>
        <mxCell id="J22njvI_X3nOLMH5hTBZ-40" style="edgeStyle=orthogonalEdgeStyle;rounded=0;orthogonalLoop=1;jettySize=auto;html=1;endArrow=none;endFill=0;dashed=1;dashPattern=8 8;" edge="1" parent="1" source="2e49270ec7c68f3f-20" target="J22njvI_X3nOLMH5hTBZ-33">
          <mxGeometry relative="1" as="geometry" />
        </mxCell>
        <mxCell id="J22njvI_X3nOLMH5hTBZ-41" style="edgeStyle=orthogonalEdgeStyle;rounded=0;orthogonalLoop=1;jettySize=auto;html=1;entryX=0;entryY=0.5;entryDx=0;entryDy=0;endArrow=none;endFill=0;dashed=1;dashPattern=8 8;" edge="1" parent="1" source="J22njvI_X3nOLMH5hTBZ-35" target="2e49270ec7c68f3f-20">
          <mxGeometry relative="1" as="geometry" />
        </mxCell>
        <mxCell id="J22njvI_X3nOLMH5hTBZ-49" value="chats" style="swimlane;html=1;fontStyle=0;childLayout=stackLayout;horizontal=1;startSize=26;fillColor=#e0e0e0;horizontalStack=0;resizeParent=1;resizeLast=0;collapsible=1;marginBottom=0;swimlaneFillColor=#ffffff;align=center;rounded=0;shadow=0;comic=0;labelBackgroundColor=none;strokeWidth=1;fontFamily=Verdana;fontSize=14" vertex="1" parent="1">
          <mxGeometry x="440" y="80" width="160" height="170" as="geometry" />
        </mxCell>
        <mxCell id="J22njvI_X3nOLMH5hTBZ-50" value="id" style="shape=partialRectangle;top=0;left=0;right=0;bottom=1;html=1;align=left;verticalAlign=middle;fillColor=none;spacingLeft=34;spacingRight=4;whiteSpace=wrap;overflow=hidden;rotatable=0;points=[[0,0.5],[1,0.5]];portConstraint=eastwest;dropTarget=0;fontStyle=5;" vertex="1" parent="J22njvI_X3nOLMH5hTBZ-49">
          <mxGeometry y="26" width="160" height="30" as="geometry" />
        </mxCell>
        <mxCell id="J22njvI_X3nOLMH5hTBZ-51" value="&lt;b&gt;PK&lt;/b&gt;" style="shape=partialRectangle;top=0;left=0;bottom=0;html=1;fillColor=none;align=left;verticalAlign=middle;spacingLeft=4;spacingRight=4;whiteSpace=wrap;overflow=hidden;rotatable=0;points=[];portConstraint=eastwest;part=1;" connectable="0" vertex="1" parent="J22njvI_X3nOLMH5hTBZ-50">
          <mxGeometry width="30" height="30" as="geometry" />
        </mxCell>
        <mxCell id="J22njvI_X3nOLMH5hTBZ-52" value="user_id" style="shape=partialRectangle;top=0;left=0;right=0;bottom=1;html=1;align=left;verticalAlign=middle;fillColor=none;spacingLeft=34;spacingRight=4;whiteSpace=wrap;overflow=hidden;rotatable=0;points=[[0,0.5],[1,0.5]];portConstraint=eastwest;dropTarget=0;fontStyle=5;" vertex="1" parent="J22njvI_X3nOLMH5hTBZ-49">
          <mxGeometry y="56" width="160" height="30" as="geometry" />
        </mxCell>
        <mxCell id="J22njvI_X3nOLMH5hTBZ-53" value="&lt;b&gt;FK&lt;/b&gt;" style="shape=partialRectangle;top=0;left=0;bottom=0;html=1;fillColor=none;align=left;verticalAlign=middle;spacingLeft=4;spacingRight=4;whiteSpace=wrap;overflow=hidden;rotatable=0;points=[];portConstraint=eastwest;part=1;" connectable="0" vertex="1" parent="J22njvI_X3nOLMH5hTBZ-52">
          <mxGeometry width="30" height="30" as="geometry" />
        </mxCell>
        <mxCell id="J22njvI_X3nOLMH5hTBZ-54" value="name" style="shape=partialRectangle;top=0;left=0;right=0;bottom=0;html=1;align=left;verticalAlign=top;fillColor=none;spacingLeft=34;spacingRight=4;whiteSpace=wrap;overflow=hidden;rotatable=0;points=[[0,0.5],[1,0.5]];portConstraint=eastwest;dropTarget=0;" vertex="1" parent="J22njvI_X3nOLMH5hTBZ-49">
          <mxGeometry y="86" width="160" height="26" as="geometry" />
        </mxCell>
        <mxCell id="J22njvI_X3nOLMH5hTBZ-55" value="str" style="shape=partialRectangle;top=0;left=0;bottom=0;html=1;fillColor=none;align=left;verticalAlign=top;spacingLeft=4;spacingRight=4;whiteSpace=wrap;overflow=hidden;rotatable=0;points=[];portConstraint=eastwest;part=1;" connectable="0" vertex="1" parent="J22njvI_X3nOLMH5hTBZ-54">
          <mxGeometry width="30" height="26" as="geometry" />
        </mxCell>
        <mxCell id="J22njvI_X3nOLMH5hTBZ-56" value="description" style="shape=partialRectangle;top=0;left=0;right=0;bottom=0;html=1;align=left;verticalAlign=top;fillColor=none;spacingLeft=34;spacingRight=4;whiteSpace=wrap;overflow=hidden;rotatable=0;points=[[0,0.5],[1,0.5]];portConstraint=eastwest;dropTarget=0;" vertex="1" parent="J22njvI_X3nOLMH5hTBZ-49">
          <mxGeometry y="112" width="160" height="26" as="geometry" />
        </mxCell>
        <mxCell id="J22njvI_X3nOLMH5hTBZ-57" value="!str" style="shape=partialRectangle;top=0;left=0;bottom=0;html=1;fillColor=none;align=left;verticalAlign=top;spacingLeft=4;spacingRight=4;whiteSpace=wrap;overflow=hidden;rotatable=0;points=[];portConstraint=eastwest;part=1;" connectable="0" vertex="1" parent="J22njvI_X3nOLMH5hTBZ-56">
          <mxGeometry width="30" height="26" as="geometry" />
        </mxCell>
        <mxCell id="J22njvI_X3nOLMH5hTBZ-58" value="created_at" style="shape=partialRectangle;top=0;left=0;right=0;bottom=0;html=1;align=left;verticalAlign=top;fillColor=none;spacingLeft=34;spacingRight=4;whiteSpace=wrap;overflow=hidden;rotatable=0;points=[[0,0.5],[1,0.5]];portConstraint=eastwest;dropTarget=0;" vertex="1" parent="J22njvI_X3nOLMH5hTBZ-49">
          <mxGeometry y="138" width="160" height="32" as="geometry" />
        </mxCell>
        <mxCell id="J22njvI_X3nOLMH5hTBZ-59" value="tsp" style="shape=partialRectangle;top=0;left=0;bottom=0;html=1;fillColor=none;align=left;verticalAlign=top;spacingLeft=4;spacingRight=4;whiteSpace=wrap;overflow=hidden;rotatable=0;points=[];portConstraint=eastwest;part=1;" connectable="0" vertex="1" parent="J22njvI_X3nOLMH5hTBZ-58">
          <mxGeometry width="30" height="32" as="geometry" />
        </mxCell>
        <mxCell id="J22njvI_X3nOLMH5hTBZ-62" style="edgeStyle=orthogonalEdgeStyle;rounded=0;orthogonalLoop=1;jettySize=auto;html=1;entryX=0;entryY=0.5;entryDx=0;entryDy=0;endArrow=none;endFill=0;dashed=1;dashPattern=8 8;" edge="1" parent="1" source="2e49270ec7c68f3f-81" target="J22njvI_X3nOLMH5hTBZ-52">
          <mxGeometry relative="1" as="geometry" />
        </mxCell>
        <mxCell id="J22njvI_X3nOLMH5hTBZ-63" value="chat_results" style="swimlane;html=1;fontStyle=0;childLayout=stackLayout;horizontal=1;startSize=26;fillColor=#e0e0e0;horizontalStack=0;resizeParent=1;resizeLast=0;collapsible=1;marginBottom=0;swimlaneFillColor=#ffffff;align=center;rounded=0;shadow=0;comic=0;labelBackgroundColor=none;strokeWidth=1;fontFamily=Verdana;fontSize=14" vertex="1" parent="1">
          <mxGeometry x="690" y="50" width="160" height="174" as="geometry" />
        </mxCell>
        <mxCell id="J22njvI_X3nOLMH5hTBZ-64" value="id" style="shape=partialRectangle;top=0;left=0;right=0;bottom=1;html=1;align=left;verticalAlign=middle;fillColor=none;spacingLeft=34;spacingRight=4;whiteSpace=wrap;overflow=hidden;rotatable=0;points=[[0,0.5],[1,0.5]];portConstraint=eastwest;dropTarget=0;fontStyle=5;" vertex="1" parent="J22njvI_X3nOLMH5hTBZ-63">
          <mxGeometry y="26" width="160" height="30" as="geometry" />
        </mxCell>
        <mxCell id="J22njvI_X3nOLMH5hTBZ-65" value="&lt;b&gt;PK&lt;/b&gt;" style="shape=partialRectangle;top=0;left=0;bottom=0;html=1;fillColor=none;align=left;verticalAlign=middle;spacingLeft=4;spacingRight=4;whiteSpace=wrap;overflow=hidden;rotatable=0;points=[];portConstraint=eastwest;part=1;" connectable="0" vertex="1" parent="J22njvI_X3nOLMH5hTBZ-64">
          <mxGeometry width="30" height="30" as="geometry" />
        </mxCell>
        <mxCell id="J22njvI_X3nOLMH5hTBZ-66" value="chatId" style="shape=partialRectangle;top=0;left=0;right=0;bottom=1;html=1;align=left;verticalAlign=middle;fillColor=none;spacingLeft=34;spacingRight=4;whiteSpace=wrap;overflow=hidden;rotatable=0;points=[[0,0.5],[1,0.5]];portConstraint=eastwest;dropTarget=0;fontStyle=5;" vertex="1" parent="J22njvI_X3nOLMH5hTBZ-63">
          <mxGeometry y="56" width="160" height="30" as="geometry" />
        </mxCell>
        <mxCell id="J22njvI_X3nOLMH5hTBZ-67" value="&lt;b&gt;FK&lt;/b&gt;" style="shape=partialRectangle;top=0;left=0;bottom=0;html=1;fillColor=none;align=left;verticalAlign=middle;spacingLeft=4;spacingRight=4;whiteSpace=wrap;overflow=hidden;rotatable=0;points=[];portConstraint=eastwest;part=1;" connectable="0" vertex="1" parent="J22njvI_X3nOLMH5hTBZ-66">
          <mxGeometry width="30" height="30" as="geometry" />
        </mxCell>
        <mxCell id="J22njvI_X3nOLMH5hTBZ-68" value="video_ids" style="shape=partialRectangle;top=0;left=0;right=0;bottom=0;html=1;align=left;verticalAlign=top;fillColor=none;spacingLeft=34;spacingRight=4;whiteSpace=wrap;overflow=hidden;rotatable=0;points=[[0,0.5],[1,0.5]];portConstraint=eastwest;dropTarget=0;" vertex="1" parent="J22njvI_X3nOLMH5hTBZ-63">
          <mxGeometry y="86" width="160" height="26" as="geometry" />
        </mxCell>
        <mxCell id="J22njvI_X3nOLMH5hTBZ-69" value="str[]" style="shape=partialRectangle;top=0;left=0;bottom=0;html=1;fillColor=none;align=left;verticalAlign=top;spacingLeft=4;spacingRight=4;whiteSpace=wrap;overflow=hidden;rotatable=0;points=[];portConstraint=eastwest;part=1;" connectable="0" vertex="1" parent="J22njvI_X3nOLMH5hTBZ-68">
          <mxGeometry width="30" height="26" as="geometry" />
        </mxCell>
        <mxCell id="J22njvI_X3nOLMH5hTBZ-70" value="message" style="shape=partialRectangle;top=0;left=0;right=0;bottom=0;html=1;align=left;verticalAlign=top;fillColor=none;spacingLeft=34;spacingRight=4;whiteSpace=wrap;overflow=hidden;rotatable=0;points=[[0,0.5],[1,0.5]];portConstraint=eastwest;dropTarget=0;" vertex="1" parent="J22njvI_X3nOLMH5hTBZ-63">
          <mxGeometry y="112" width="160" height="26" as="geometry" />
        </mxCell>
        <mxCell id="J22njvI_X3nOLMH5hTBZ-71" value="!str" style="shape=partialRectangle;top=0;left=0;bottom=0;html=1;fillColor=none;align=left;verticalAlign=top;spacingLeft=4;spacingRight=4;whiteSpace=wrap;overflow=hidden;rotatable=0;points=[];portConstraint=eastwest;part=1;" connectable="0" vertex="1" parent="J22njvI_X3nOLMH5hTBZ-70">
          <mxGeometry width="30" height="26" as="geometry" />
        </mxCell>
        <mxCell id="J22njvI_X3nOLMH5hTBZ-72" value="created_at" style="shape=partialRectangle;top=0;left=0;right=0;bottom=0;html=1;align=left;verticalAlign=top;fillColor=none;spacingLeft=34;spacingRight=4;whiteSpace=wrap;overflow=hidden;rotatable=0;points=[[0,0.5],[1,0.5]];portConstraint=eastwest;dropTarget=0;" vertex="1" parent="J22njvI_X3nOLMH5hTBZ-63">
          <mxGeometry y="138" width="160" height="26" as="geometry" />
        </mxCell>
        <mxCell id="J22njvI_X3nOLMH5hTBZ-73" value="tsp" style="shape=partialRectangle;top=0;left=0;bottom=0;html=1;fillColor=none;align=left;verticalAlign=top;spacingLeft=4;spacingRight=4;whiteSpace=wrap;overflow=hidden;rotatable=0;points=[];portConstraint=eastwest;part=1;" connectable="0" vertex="1" parent="J22njvI_X3nOLMH5hTBZ-72">
          <mxGeometry width="30" height="26" as="geometry" />
        </mxCell>
        <mxCell id="J22njvI_X3nOLMH5hTBZ-74" value="" style="shape=partialRectangle;top=0;left=0;right=0;bottom=0;html=1;align=left;verticalAlign=top;fillColor=none;spacingLeft=34;spacingRight=4;whiteSpace=wrap;overflow=hidden;rotatable=0;points=[[0,0.5],[1,0.5]];portConstraint=eastwest;dropTarget=0;" vertex="1" parent="J22njvI_X3nOLMH5hTBZ-63">
          <mxGeometry y="164" width="160" height="10" as="geometry" />
        </mxCell>
        <mxCell id="J22njvI_X3nOLMH5hTBZ-75" value="" style="shape=partialRectangle;top=0;left=0;bottom=0;html=1;fillColor=none;align=left;verticalAlign=top;spacingLeft=4;spacingRight=4;whiteSpace=wrap;overflow=hidden;rotatable=0;points=[];portConstraint=eastwest;part=1;" connectable="0" vertex="1" parent="J22njvI_X3nOLMH5hTBZ-74">
          <mxGeometry width="30" height="10" as="geometry" />
        </mxCell>
        <mxCell id="J22njvI_X3nOLMH5hTBZ-77" value="api_keys" style="swimlane;html=1;fontStyle=0;childLayout=stackLayout;horizontal=1;startSize=26;fillColor=#e0e0e0;horizontalStack=0;resizeParent=1;resizeLast=0;collapsible=1;marginBottom=0;swimlaneFillColor=#ffffff;align=center;rounded=0;shadow=0;comic=0;labelBackgroundColor=none;strokeWidth=1;fontFamily=Verdana;fontSize=14" vertex="1" parent="1">
          <mxGeometry x="440" y="278" width="160" height="214" as="geometry" />
        </mxCell>
        <mxCell id="J22njvI_X3nOLMH5hTBZ-78" value="id" style="shape=partialRectangle;top=0;left=0;right=0;bottom=1;html=1;align=left;verticalAlign=middle;fillColor=none;spacingLeft=34;spacingRight=4;whiteSpace=wrap;overflow=hidden;rotatable=0;points=[[0,0.5],[1,0.5]];portConstraint=eastwest;dropTarget=0;fontStyle=5;" vertex="1" parent="J22njvI_X3nOLMH5hTBZ-77">
          <mxGeometry y="26" width="160" height="30" as="geometry" />
        </mxCell>
        <mxCell id="J22njvI_X3nOLMH5hTBZ-79" value="&lt;b&gt;PK&lt;/b&gt;" style="shape=partialRectangle;top=0;left=0;bottom=0;html=1;fillColor=none;align=left;verticalAlign=middle;spacingLeft=4;spacingRight=4;whiteSpace=wrap;overflow=hidden;rotatable=0;points=[];portConstraint=eastwest;part=1;" connectable="0" vertex="1" parent="J22njvI_X3nOLMH5hTBZ-78">
          <mxGeometry width="30" height="30" as="geometry" />
        </mxCell>
        <mxCell id="J22njvI_X3nOLMH5hTBZ-80" value="user_id" style="shape=partialRectangle;top=0;left=0;right=0;bottom=1;html=1;align=left;verticalAlign=middle;fillColor=none;spacingLeft=34;spacingRight=4;whiteSpace=wrap;overflow=hidden;rotatable=0;points=[[0,0.5],[1,0.5]];portConstraint=eastwest;dropTarget=0;fontStyle=5;" vertex="1" parent="J22njvI_X3nOLMH5hTBZ-77">
          <mxGeometry y="56" width="160" height="30" as="geometry" />
        </mxCell>
        <mxCell id="J22njvI_X3nOLMH5hTBZ-81" value="&lt;b&gt;FK&lt;/b&gt;" style="shape=partialRectangle;top=0;left=0;bottom=0;html=1;fillColor=none;align=left;verticalAlign=middle;spacingLeft=4;spacingRight=4;whiteSpace=wrap;overflow=hidden;rotatable=0;points=[];portConstraint=eastwest;part=1;" connectable="0" vertex="1" parent="J22njvI_X3nOLMH5hTBZ-80">
          <mxGeometry width="30" height="30" as="geometry" />
        </mxCell>
        <mxCell id="J22njvI_X3nOLMH5hTBZ-92" value="&lt;div&gt;&lt;span style=&quot;background-color: transparent; color: light-dark(rgb(0, 0, 0), rgb(255, 255, 255));&quot;&gt;secret&lt;/span&gt;&lt;/div&gt;" style="shape=partialRectangle;top=0;left=0;right=0;bottom=0;html=1;align=left;verticalAlign=top;fillColor=none;spacingLeft=34;spacingRight=4;whiteSpace=wrap;overflow=hidden;rotatable=0;points=[[0,0.5],[1,0.5]];portConstraint=eastwest;dropTarget=0;" vertex="1" parent="J22njvI_X3nOLMH5hTBZ-77">
          <mxGeometry y="86" width="160" height="34" as="geometry" />
        </mxCell>
        <mxCell id="J22njvI_X3nOLMH5hTBZ-93" value="str" style="shape=partialRectangle;top=0;left=0;bottom=0;html=1;fillColor=none;align=left;verticalAlign=top;spacingLeft=4;spacingRight=4;whiteSpace=wrap;overflow=hidden;rotatable=0;points=[];portConstraint=eastwest;part=1;" connectable="0" vertex="1" parent="J22njvI_X3nOLMH5hTBZ-92">
          <mxGeometry width="30" height="34" as="geometry" />
        </mxCell>
        <mxCell id="J22njvI_X3nOLMH5hTBZ-107" value="&lt;div&gt;&lt;span style=&quot;background-color: transparent; color: light-dark(rgb(0, 0, 0), rgb(255, 255, 255));&quot;&gt;disabled&lt;/span&gt;&lt;/div&gt;" style="shape=partialRectangle;top=0;left=0;right=0;bottom=0;html=1;align=left;verticalAlign=top;fillColor=none;spacingLeft=34;spacingRight=4;whiteSpace=wrap;overflow=hidden;rotatable=0;points=[[0,0.5],[1,0.5]];portConstraint=eastwest;dropTarget=0;" vertex="1" parent="J22njvI_X3nOLMH5hTBZ-77">
          <mxGeometry y="120" width="160" height="34" as="geometry" />
        </mxCell>
        <mxCell id="J22njvI_X3nOLMH5hTBZ-108" value="bool" style="shape=partialRectangle;top=0;left=0;bottom=0;html=1;fillColor=none;align=left;verticalAlign=top;spacingLeft=4;spacingRight=4;whiteSpace=wrap;overflow=hidden;rotatable=0;points=[];portConstraint=eastwest;part=1;" connectable="0" vertex="1" parent="J22njvI_X3nOLMH5hTBZ-107">
          <mxGeometry width="30" height="34" as="geometry" />
        </mxCell>
        <mxCell id="J22njvI_X3nOLMH5hTBZ-82" value="last_used" style="shape=partialRectangle;top=0;left=0;right=0;bottom=0;html=1;align=left;verticalAlign=top;fillColor=none;spacingLeft=34;spacingRight=4;whiteSpace=wrap;overflow=hidden;rotatable=0;points=[[0,0.5],[1,0.5]];portConstraint=eastwest;dropTarget=0;" vertex="1" parent="J22njvI_X3nOLMH5hTBZ-77">
          <mxGeometry y="154" width="160" height="30" as="geometry" />
        </mxCell>
        <mxCell id="J22njvI_X3nOLMH5hTBZ-83" value="tsp" style="shape=partialRectangle;top=0;left=0;bottom=0;html=1;fillColor=none;align=left;verticalAlign=top;spacingLeft=4;spacingRight=4;whiteSpace=wrap;overflow=hidden;rotatable=0;points=[];portConstraint=eastwest;part=1;" connectable="0" vertex="1" parent="J22njvI_X3nOLMH5hTBZ-82">
          <mxGeometry width="30" height="30" as="geometry" />
        </mxCell>
        <mxCell id="J22njvI_X3nOLMH5hTBZ-94" value="created_at" style="shape=partialRectangle;top=0;left=0;right=0;bottom=0;html=1;align=left;verticalAlign=top;fillColor=none;spacingLeft=34;spacingRight=4;whiteSpace=wrap;overflow=hidden;rotatable=0;points=[[0,0.5],[1,0.5]];portConstraint=eastwest;dropTarget=0;" vertex="1" parent="J22njvI_X3nOLMH5hTBZ-77">
          <mxGeometry y="184" width="160" height="30" as="geometry" />
        </mxCell>
        <mxCell id="J22njvI_X3nOLMH5hTBZ-95" value="tsp" style="shape=partialRectangle;top=0;left=0;bottom=0;html=1;fillColor=none;align=left;verticalAlign=top;spacingLeft=4;spacingRight=4;whiteSpace=wrap;overflow=hidden;rotatable=0;points=[];portConstraint=eastwest;part=1;" connectable="0" vertex="1" parent="J22njvI_X3nOLMH5hTBZ-94">
          <mxGeometry width="30" height="30" as="geometry" />
        </mxCell>
        <mxCell id="J22njvI_X3nOLMH5hTBZ-91" style="edgeStyle=orthogonalEdgeStyle;rounded=0;orthogonalLoop=1;jettySize=auto;html=1;entryX=0;entryY=0.5;entryDx=0;entryDy=0;endArrow=none;endFill=0;dashed=1;dashPattern=8 8;" edge="1" parent="1" source="J22njvI_X3nOLMH5hTBZ-50" target="J22njvI_X3nOLMH5hTBZ-66">
          <mxGeometry relative="1" as="geometry" />
        </mxCell>
        <mxCell id="J22njvI_X3nOLMH5hTBZ-96" style="edgeStyle=orthogonalEdgeStyle;rounded=0;orthogonalLoop=1;jettySize=auto;html=1;endArrow=none;endFill=0;dashed=1;dashPattern=8 8;" edge="1" parent="1" source="2e49270ec7c68f3f-81" target="J22njvI_X3nOLMH5hTBZ-80">
          <mxGeometry relative="1" as="geometry" />
        </mxCell>
        <mxCell id="J22njvI_X3nOLMH5hTBZ-106" style="edgeStyle=orthogonalEdgeStyle;rounded=0;orthogonalLoop=1;jettySize=auto;html=1;entryX=0;entryY=0.5;entryDx=0;entryDy=0;endArrow=none;endFill=0;dashed=1;dashPattern=8 8;" edge="1" parent="1" source="J22njvI_X3nOLMH5hTBZ-78" target="J22njvI_X3nOLMH5hTBZ-104">
          <mxGeometry relative="1" as="geometry" />
        </mxCell>
        <mxCell id="J22njvI_X3nOLMH5hTBZ-116" style="edgeStyle=orthogonalEdgeStyle;rounded=0;orthogonalLoop=1;jettySize=auto;html=1;entryX=0;entryY=0.5;entryDx=0;entryDy=0;endArrow=none;endFill=0;dashed=1;dashPattern=8 8;" edge="1" parent="1" source="2e49270ec7c68f3f-20" target="J22njvI_X3nOLMH5hTBZ-114">
          <mxGeometry relative="1" as="geometry" />
        </mxCell>
        <mxCell id="J22njvI_X3nOLMH5hTBZ-125" style="edgeStyle=orthogonalEdgeStyle;rounded=0;orthogonalLoop=1;jettySize=auto;html=1;entryX=0;entryY=0.5;entryDx=0;entryDy=0;endArrow=none;endFill=0;dashed=1;dashPattern=8 8;" edge="1" parent="1" source="2e49270ec7c68f3f-81" target="J22njvI_X3nOLMH5hTBZ-102">
          <mxGeometry relative="1" as="geometry">
            <Array as="points">
              <mxPoint x="620" y="511" />
              <mxPoint x="620" y="390" />
            </Array>
          </mxGeometry>
        </mxCell>
        <mxCell id="J22njvI_X3nOLMH5hTBZ-127" style="edgeStyle=orthogonalEdgeStyle;rounded=0;orthogonalLoop=1;jettySize=auto;html=1;entryX=0;entryY=0.5;entryDx=0;entryDy=0;endArrow=none;endFill=0;dashed=1;dashPattern=8 8;" edge="1" parent="1" source="J22njvI_X3nOLMH5hTBZ-50" target="J22njvI_X3nOLMH5hTBZ-112">
          <mxGeometry relative="1" as="geometry">
            <Array as="points">
              <mxPoint x="670" y="121" />
              <mxPoint x="670" y="331" />
            </Array>
          </mxGeometry>
        </mxCell>
        <mxCell id="Qyyz4YVC3kcD_8rJBm0w-1" value="transaction_types" style="swimlane;html=1;fontStyle=0;childLayout=stackLayout;horizontal=1;startSize=26;fillColor=#e0e0e0;horizontalStack=0;resizeParent=1;resizeLast=0;collapsible=1;marginBottom=0;swimlaneFillColor=#ffffff;align=center;rounded=0;shadow=0;comic=0;labelBackgroundColor=none;strokeWidth=1;fontFamily=Verdana;fontSize=14" vertex="1" parent="1">
          <mxGeometry x="892" y="410" width="160" height="144" as="geometry" />
        </mxCell>
        <mxCell id="Qyyz4YVC3kcD_8rJBm0w-2" value="id" style="shape=partialRectangle;top=0;left=0;right=0;bottom=1;html=1;align=left;verticalAlign=middle;fillColor=none;spacingLeft=34;spacingRight=4;whiteSpace=wrap;overflow=hidden;rotatable=0;points=[[0,0.5],[1,0.5]];portConstraint=eastwest;dropTarget=0;fontStyle=5;" vertex="1" parent="Qyyz4YVC3kcD_8rJBm0w-1">
          <mxGeometry y="26" width="160" height="30" as="geometry" />
        </mxCell>
        <mxCell id="Qyyz4YVC3kcD_8rJBm0w-3" value="&lt;b&gt;PK&lt;/b&gt;" style="shape=partialRectangle;top=0;left=0;bottom=0;html=1;fillColor=none;align=left;verticalAlign=middle;spacingLeft=4;spacingRight=4;whiteSpace=wrap;overflow=hidden;rotatable=0;points=[];portConstraint=eastwest;part=1;" connectable="0" vertex="1" parent="Qyyz4YVC3kcD_8rJBm0w-2">
          <mxGeometry width="30" height="30" as="geometry" />
        </mxCell>
        <mxCell id="Qyyz4YVC3kcD_8rJBm0w-6" value="name" style="shape=partialRectangle;top=0;left=0;right=0;bottom=0;html=1;align=left;verticalAlign=top;fillColor=none;spacingLeft=34;spacingRight=4;whiteSpace=wrap;overflow=hidden;rotatable=0;points=[[0,0.5],[1,0.5]];portConstraint=eastwest;dropTarget=0;" vertex="1" parent="Qyyz4YVC3kcD_8rJBm0w-1">
          <mxGeometry y="56" width="160" height="26" as="geometry" />
        </mxCell>
        <mxCell id="Qyyz4YVC3kcD_8rJBm0w-7" value="str" style="shape=partialRectangle;top=0;left=0;bottom=0;html=1;fillColor=none;align=left;verticalAlign=top;spacingLeft=4;spacingRight=4;whiteSpace=wrap;overflow=hidden;rotatable=0;points=[];portConstraint=eastwest;part=1;" connectable="0" vertex="1" parent="Qyyz4YVC3kcD_8rJBm0w-6">
          <mxGeometry width="30" height="26" as="geometry" />
        </mxCell>
        <mxCell id="Qyyz4YVC3kcD_8rJBm0w-8" value="description" style="shape=partialRectangle;top=0;left=0;right=0;bottom=0;html=1;align=left;verticalAlign=top;fillColor=none;spacingLeft=34;spacingRight=4;whiteSpace=wrap;overflow=hidden;rotatable=0;points=[[0,0.5],[1,0.5]];portConstraint=eastwest;dropTarget=0;" vertex="1" parent="Qyyz4YVC3kcD_8rJBm0w-1">
          <mxGeometry y="82" width="160" height="26" as="geometry" />
        </mxCell>
        <mxCell id="Qyyz4YVC3kcD_8rJBm0w-9" value="!str" style="shape=partialRectangle;top=0;left=0;bottom=0;html=1;fillColor=none;align=left;verticalAlign=top;spacingLeft=4;spacingRight=4;whiteSpace=wrap;overflow=hidden;rotatable=0;points=[];portConstraint=eastwest;part=1;" connectable="0" vertex="1" parent="Qyyz4YVC3kcD_8rJBm0w-8">
          <mxGeometry width="30" height="26" as="geometry" />
        </mxCell>
        <mxCell id="Qyyz4YVC3kcD_8rJBm0w-10" value="created_at" style="shape=partialRectangle;top=0;left=0;right=0;bottom=0;html=1;align=left;verticalAlign=top;fillColor=none;spacingLeft=34;spacingRight=4;whiteSpace=wrap;overflow=hidden;rotatable=0;points=[[0,0.5],[1,0.5]];portConstraint=eastwest;dropTarget=0;" vertex="1" parent="Qyyz4YVC3kcD_8rJBm0w-1">
          <mxGeometry y="108" width="160" height="26" as="geometry" />
        </mxCell>
        <mxCell id="Qyyz4YVC3kcD_8rJBm0w-11" value="tsp" style="shape=partialRectangle;top=0;left=0;bottom=0;html=1;fillColor=none;align=left;verticalAlign=top;spacingLeft=4;spacingRight=4;whiteSpace=wrap;overflow=hidden;rotatable=0;points=[];portConstraint=eastwest;part=1;" connectable="0" vertex="1" parent="Qyyz4YVC3kcD_8rJBm0w-10">
          <mxGeometry width="30" height="26" as="geometry" />
        </mxCell>
        <mxCell id="Qyyz4YVC3kcD_8rJBm0w-12" value="" style="shape=partialRectangle;top=0;left=0;right=0;bottom=0;html=1;align=left;verticalAlign=top;fillColor=none;spacingLeft=34;spacingRight=4;whiteSpace=wrap;overflow=hidden;rotatable=0;points=[[0,0.5],[1,0.5]];portConstraint=eastwest;dropTarget=0;" vertex="1" parent="Qyyz4YVC3kcD_8rJBm0w-1">
          <mxGeometry y="134" width="160" height="10" as="geometry" />
        </mxCell>
        <mxCell id="Qyyz4YVC3kcD_8rJBm0w-13" value="" style="shape=partialRectangle;top=0;left=0;bottom=0;html=1;fillColor=none;align=left;verticalAlign=top;spacingLeft=4;spacingRight=4;whiteSpace=wrap;overflow=hidden;rotatable=0;points=[];portConstraint=eastwest;part=1;" connectable="0" vertex="1" parent="Qyyz4YVC3kcD_8rJBm0w-12">
          <mxGeometry width="30" height="10" as="geometry" />
        </mxCell>
        <mxCell id="Qyyz4YVC3kcD_8rJBm0w-16" style="edgeStyle=orthogonalEdgeStyle;rounded=0;orthogonalLoop=1;jettySize=auto;html=1;endArrow=none;endFill=0;dashed=1;dashPattern=8 8;" edge="1" parent="1" source="Qyyz4YVC3kcD_8rJBm0w-14" target="Qyyz4YVC3kcD_8rJBm0w-2">
          <mxGeometry relative="1" as="geometry" />
        </mxCell>
        <mxCell id="2h3VSlBN1-Aui4E00N1O-14" value="Admin Cognito" style="swimlane;html=1;fontStyle=1;childLayout=stackLayout;horizontal=1;startSize=26;fillColor=light-dark(#0050EF,#FF00FF);horizontalStack=0;resizeParent=1;resizeLast=0;collapsible=1;marginBottom=0;swimlaneFillColor=#ffffff;align=center;rounded=0;shadow=0;comic=0;labelBackgroundColor=none;strokeWidth=1;fontFamily=Verdana;fontSize=14;fontColor=light-dark(#FFFFFF,#FFFFFF);strokeColor=#001DBC;" vertex="1" parent="1">
          <mxGeometry x="95" y="947" width="160" height="83" as="geometry" />
        </mxCell>
        <mxCell id="2h3VSlBN1-Aui4E00N1O-15" value="id" style="shape=partialRectangle;top=0;left=0;right=0;bottom=1;html=1;align=left;verticalAlign=middle;fillColor=none;spacingLeft=34;spacingRight=4;whiteSpace=wrap;overflow=hidden;rotatable=0;points=[[0,0.5],[1,0.5]];portConstraint=eastwest;dropTarget=0;fontStyle=5;" vertex="1" parent="2h3VSlBN1-Aui4E00N1O-14">
          <mxGeometry y="26" width="160" height="30" as="geometry" />
        </mxCell>
        <mxCell id="2h3VSlBN1-Aui4E00N1O-16" value="&lt;b&gt;PK&lt;/b&gt;" style="shape=partialRectangle;top=0;left=0;bottom=0;html=1;fillColor=none;align=left;verticalAlign=middle;spacingLeft=4;spacingRight=4;whiteSpace=wrap;overflow=hidden;rotatable=0;points=[];portConstraint=eastwest;part=1;" connectable="0" vertex="1" parent="2h3VSlBN1-Aui4E00N1O-15">
          <mxGeometry width="30" height="30" as="geometry" />
        </mxCell>
        <mxCell id="2h3VSlBN1-Aui4E00N1O-19" value="email" style="shape=partialRectangle;top=0;left=0;right=0;bottom=0;html=1;align=left;verticalAlign=top;fillColor=none;spacingLeft=34;spacingRight=4;whiteSpace=wrap;overflow=hidden;rotatable=0;points=[[0,0.5],[1,0.5]];portConstraint=eastwest;dropTarget=0;" vertex="1" parent="2h3VSlBN1-Aui4E00N1O-14">
          <mxGeometry y="56" width="160" height="26" as="geometry" />
        </mxCell>
        <mxCell id="2h3VSlBN1-Aui4E00N1O-20" value="str" style="shape=partialRectangle;top=0;left=0;bottom=0;html=1;fillColor=none;align=left;verticalAlign=top;spacingLeft=4;spacingRight=4;whiteSpace=wrap;overflow=hidden;rotatable=0;points=[];portConstraint=eastwest;part=1;" connectable="0" vertex="1" parent="2h3VSlBN1-Aui4E00N1O-19">
          <mxGeometry width="30" height="26" as="geometry" />
        </mxCell>
        <mxCell id="2h3VSlBN1-Aui4E00N1O-59" value="handles" style="swimlane;html=1;fontStyle=0;childLayout=stackLayout;horizontal=1;startSize=26;fillColor=#e0e0e0;horizontalStack=0;resizeParent=1;resizeLast=0;collapsible=1;marginBottom=0;swimlaneFillColor=#ffffff;align=center;rounded=0;shadow=0;comic=0;labelBackgroundColor=none;strokeWidth=1;fontFamily=Verdana;fontSize=14" vertex="1" parent="1">
          <mxGeometry x="612" y="887" width="160" height="200" as="geometry" />
        </mxCell>
        <mxCell id="2h3VSlBN1-Aui4E00N1O-60" value="id" style="shape=partialRectangle;top=0;left=0;right=0;bottom=1;html=1;align=left;verticalAlign=middle;fillColor=none;spacingLeft=34;spacingRight=4;whiteSpace=wrap;overflow=hidden;rotatable=0;points=[[0,0.5],[1,0.5]];portConstraint=eastwest;dropTarget=0;fontStyle=5;" vertex="1" parent="2h3VSlBN1-Aui4E00N1O-59">
          <mxGeometry y="26" width="160" height="30" as="geometry" />
        </mxCell>
        <mxCell id="2h3VSlBN1-Aui4E00N1O-61" value="&lt;b&gt;PK&lt;/b&gt;" style="shape=partialRectangle;top=0;left=0;bottom=0;html=1;fillColor=none;align=left;verticalAlign=middle;spacingLeft=4;spacingRight=4;whiteSpace=wrap;overflow=hidden;rotatable=0;points=[];portConstraint=eastwest;part=1;" connectable="0" vertex="1" parent="2h3VSlBN1-Aui4E00N1O-60">
          <mxGeometry width="30" height="30" as="geometry" />
        </mxCell>
        <mxCell id="2h3VSlBN1-Aui4E00N1O-131" value="platform_id" style="shape=partialRectangle;top=0;left=0;right=0;bottom=1;html=1;align=left;verticalAlign=middle;fillColor=none;spacingLeft=34;spacingRight=4;whiteSpace=wrap;overflow=hidden;rotatable=0;points=[[0,0.5],[1,0.5]];portConstraint=eastwest;dropTarget=0;fontStyle=5;" vertex="1" parent="2h3VSlBN1-Aui4E00N1O-59">
          <mxGeometry y="56" width="160" height="30" as="geometry" />
        </mxCell>
        <mxCell id="2h3VSlBN1-Aui4E00N1O-132" value="&lt;b&gt;FK&lt;/b&gt;" style="shape=partialRectangle;top=0;left=0;bottom=0;html=1;fillColor=none;align=left;verticalAlign=middle;spacingLeft=4;spacingRight=4;whiteSpace=wrap;overflow=hidden;rotatable=0;points=[];portConstraint=eastwest;part=1;" connectable="0" vertex="1" parent="2h3VSlBN1-Aui4E00N1O-131">
          <mxGeometry width="30" height="30" as="geometry" />
        </mxCell>
        <mxCell id="2h3VSlBN1-Aui4E00N1O-62" value="admin_id" style="shape=partialRectangle;top=0;left=0;right=0;bottom=1;html=1;align=left;verticalAlign=middle;fillColor=none;spacingLeft=34;spacingRight=4;whiteSpace=wrap;overflow=hidden;rotatable=0;points=[[0,0.5],[1,0.5]];portConstraint=eastwest;dropTarget=0;fontStyle=5;" vertex="1" parent="2h3VSlBN1-Aui4E00N1O-59">
          <mxGeometry y="86" width="160" height="30" as="geometry" />
        </mxCell>
        <mxCell id="2h3VSlBN1-Aui4E00N1O-63" value="&lt;b&gt;FK&lt;/b&gt;" style="shape=partialRectangle;top=0;left=0;bottom=0;html=1;fillColor=none;align=left;verticalAlign=middle;spacingLeft=4;spacingRight=4;whiteSpace=wrap;overflow=hidden;rotatable=0;points=[];portConstraint=eastwest;part=1;" connectable="0" vertex="1" parent="2h3VSlBN1-Aui4E00N1O-62">
          <mxGeometry width="30" height="30" as="geometry" />
        </mxCell>
        <mxCell id="2h3VSlBN1-Aui4E00N1O-66" value="username" style="shape=partialRectangle;top=0;left=0;right=0;bottom=0;html=1;align=left;verticalAlign=top;fillColor=none;spacingLeft=34;spacingRight=4;whiteSpace=wrap;overflow=hidden;rotatable=0;points=[[0,0.5],[1,0.5]];portConstraint=eastwest;dropTarget=0;" vertex="1" parent="2h3VSlBN1-Aui4E00N1O-59">
          <mxGeometry y="116" width="160" height="26" as="geometry" />
        </mxCell>
        <mxCell id="2h3VSlBN1-Aui4E00N1O-67" value="str" style="shape=partialRectangle;top=0;left=0;bottom=0;html=1;fillColor=none;align=left;verticalAlign=top;spacingLeft=4;spacingRight=4;whiteSpace=wrap;overflow=hidden;rotatable=0;points=[];portConstraint=eastwest;part=1;" connectable="0" vertex="1" parent="2h3VSlBN1-Aui4E00N1O-66">
          <mxGeometry width="30" height="26" as="geometry" />
        </mxCell>
        <mxCell id="2h3VSlBN1-Aui4E00N1O-136" value="description" style="shape=partialRectangle;top=0;left=0;right=0;bottom=0;html=1;align=left;verticalAlign=top;fillColor=none;spacingLeft=34;spacingRight=4;whiteSpace=wrap;overflow=hidden;rotatable=0;points=[[0,0.5],[1,0.5]];portConstraint=eastwest;dropTarget=0;" vertex="1" parent="2h3VSlBN1-Aui4E00N1O-59">
          <mxGeometry y="142" width="160" height="26" as="geometry" />
        </mxCell>
        <mxCell id="2h3VSlBN1-Aui4E00N1O-137" value="!str" style="shape=partialRectangle;top=0;left=0;bottom=0;html=1;fillColor=none;align=left;verticalAlign=top;spacingLeft=4;spacingRight=4;whiteSpace=wrap;overflow=hidden;rotatable=0;points=[];portConstraint=eastwest;part=1;" connectable="0" vertex="1" parent="2h3VSlBN1-Aui4E00N1O-136">
          <mxGeometry width="30" height="26" as="geometry" />
        </mxCell>
        <mxCell id="2h3VSlBN1-Aui4E00N1O-68" value="created_at" style="shape=partialRectangle;top=0;left=0;right=0;bottom=0;html=1;align=left;verticalAlign=top;fillColor=none;spacingLeft=34;spacingRight=4;whiteSpace=wrap;overflow=hidden;rotatable=0;points=[[0,0.5],[1,0.5]];portConstraint=eastwest;dropTarget=0;" vertex="1" parent="2h3VSlBN1-Aui4E00N1O-59">
          <mxGeometry y="168" width="160" height="32" as="geometry" />
        </mxCell>
        <mxCell id="2h3VSlBN1-Aui4E00N1O-69" value="tsp" style="shape=partialRectangle;top=0;left=0;bottom=0;html=1;fillColor=none;align=left;verticalAlign=top;spacingLeft=4;spacingRight=4;whiteSpace=wrap;overflow=hidden;rotatable=0;points=[];portConstraint=eastwest;part=1;" connectable="0" vertex="1" parent="2h3VSlBN1-Aui4E00N1O-68">
          <mxGeometry width="30" height="32" as="geometry" />
        </mxCell>
        <mxCell id="2h3VSlBN1-Aui4E00N1O-70" style="edgeStyle=orthogonalEdgeStyle;rounded=0;orthogonalLoop=1;jettySize=auto;html=1;entryX=0;entryY=0.5;entryDx=0;entryDy=0;endArrow=none;endFill=0;exitX=1;exitY=0.5;exitDx=0;exitDy=0;dashed=1;dashPattern=8 8;" edge="1" parent="1" source="2h3VSlBN1-Aui4E00N1O-120" target="2h3VSlBN1-Aui4E00N1O-62">
          <mxGeometry relative="1" as="geometry" />
        </mxCell>
        <mxCell id="2h3VSlBN1-Aui4E00N1O-117" value="platforms" style="swimlane;html=1;fontStyle=0;childLayout=stackLayout;horizontal=1;startSize=26;fillColor=#e0e0e0;horizontalStack=0;resizeParent=1;resizeLast=0;collapsible=1;marginBottom=0;swimlaneFillColor=#ffffff;align=center;rounded=0;shadow=0;comic=0;labelBackgroundColor=none;strokeWidth=1;fontFamily=Verdana;fontSize=14" vertex="1" parent="1">
          <mxGeometry x="361" y="917" width="160" height="170" as="geometry" />
        </mxCell>
        <mxCell id="2h3VSlBN1-Aui4E00N1O-118" value="id" style="shape=partialRectangle;top=0;left=0;right=0;bottom=1;html=1;align=left;verticalAlign=middle;fillColor=none;spacingLeft=34;spacingRight=4;whiteSpace=wrap;overflow=hidden;rotatable=0;points=[[0,0.5],[1,0.5]];portConstraint=eastwest;dropTarget=0;fontStyle=5;" vertex="1" parent="2h3VSlBN1-Aui4E00N1O-117">
          <mxGeometry y="26" width="160" height="30" as="geometry" />
        </mxCell>
        <mxCell id="2h3VSlBN1-Aui4E00N1O-119" value="&lt;b&gt;PK&lt;/b&gt;" style="shape=partialRectangle;top=0;left=0;bottom=0;html=1;fillColor=none;align=left;verticalAlign=middle;spacingLeft=4;spacingRight=4;whiteSpace=wrap;overflow=hidden;rotatable=0;points=[];portConstraint=eastwest;part=1;" connectable="0" vertex="1" parent="2h3VSlBN1-Aui4E00N1O-118">
          <mxGeometry width="30" height="30" as="geometry" />
        </mxCell>
        <mxCell id="2h3VSlBN1-Aui4E00N1O-120" value="admin_id" style="shape=partialRectangle;top=0;left=0;right=0;bottom=1;html=1;align=left;verticalAlign=middle;fillColor=none;spacingLeft=34;spacingRight=4;whiteSpace=wrap;overflow=hidden;rotatable=0;points=[[0,0.5],[1,0.5]];portConstraint=eastwest;dropTarget=0;fontStyle=5;" vertex="1" parent="2h3VSlBN1-Aui4E00N1O-117">
          <mxGeometry y="56" width="160" height="30" as="geometry" />
        </mxCell>
        <mxCell id="2h3VSlBN1-Aui4E00N1O-121" value="&lt;b&gt;FK&lt;/b&gt;" style="shape=partialRectangle;top=0;left=0;bottom=0;html=1;fillColor=none;align=left;verticalAlign=middle;spacingLeft=4;spacingRight=4;whiteSpace=wrap;overflow=hidden;rotatable=0;points=[];portConstraint=eastwest;part=1;" connectable="0" vertex="1" parent="2h3VSlBN1-Aui4E00N1O-120">
          <mxGeometry width="30" height="30" as="geometry" />
        </mxCell>
        <mxCell id="2h3VSlBN1-Aui4E00N1O-122" value="name" style="shape=partialRectangle;top=0;left=0;right=0;bottom=0;html=1;align=left;verticalAlign=top;fillColor=none;spacingLeft=34;spacingRight=4;whiteSpace=wrap;overflow=hidden;rotatable=0;points=[[0,0.5],[1,0.5]];portConstraint=eastwest;dropTarget=0;" vertex="1" parent="2h3VSlBN1-Aui4E00N1O-117">
          <mxGeometry y="86" width="160" height="26" as="geometry" />
        </mxCell>
        <mxCell id="2h3VSlBN1-Aui4E00N1O-123" value="str" style="shape=partialRectangle;top=0;left=0;bottom=0;html=1;fillColor=none;align=left;verticalAlign=top;spacingLeft=4;spacingRight=4;whiteSpace=wrap;overflow=hidden;rotatable=0;points=[];portConstraint=eastwest;part=1;" connectable="0" vertex="1" parent="2h3VSlBN1-Aui4E00N1O-122">
          <mxGeometry width="30" height="26" as="geometry" />
        </mxCell>
        <mxCell id="2h3VSlBN1-Aui4E00N1O-124" value="description" style="shape=partialRectangle;top=0;left=0;right=0;bottom=0;html=1;align=left;verticalAlign=top;fillColor=none;spacingLeft=34;spacingRight=4;whiteSpace=wrap;overflow=hidden;rotatable=0;points=[[0,0.5],[1,0.5]];portConstraint=eastwest;dropTarget=0;" vertex="1" parent="2h3VSlBN1-Aui4E00N1O-117">
          <mxGeometry y="112" width="160" height="26" as="geometry" />
        </mxCell>
        <mxCell id="2h3VSlBN1-Aui4E00N1O-125" value="!str" style="shape=partialRectangle;top=0;left=0;bottom=0;html=1;fillColor=none;align=left;verticalAlign=top;spacingLeft=4;spacingRight=4;whiteSpace=wrap;overflow=hidden;rotatable=0;points=[];portConstraint=eastwest;part=1;" connectable="0" vertex="1" parent="2h3VSlBN1-Aui4E00N1O-124">
          <mxGeometry width="30" height="26" as="geometry" />
        </mxCell>
        <mxCell id="2h3VSlBN1-Aui4E00N1O-126" value="created_at" style="shape=partialRectangle;top=0;left=0;right=0;bottom=0;html=1;align=left;verticalAlign=top;fillColor=none;spacingLeft=34;spacingRight=4;whiteSpace=wrap;overflow=hidden;rotatable=0;points=[[0,0.5],[1,0.5]];portConstraint=eastwest;dropTarget=0;" vertex="1" parent="2h3VSlBN1-Aui4E00N1O-117">
          <mxGeometry y="138" width="160" height="32" as="geometry" />
        </mxCell>
        <mxCell id="2h3VSlBN1-Aui4E00N1O-127" value="tsp" style="shape=partialRectangle;top=0;left=0;bottom=0;html=1;fillColor=none;align=left;verticalAlign=top;spacingLeft=4;spacingRight=4;whiteSpace=wrap;overflow=hidden;rotatable=0;points=[];portConstraint=eastwest;part=1;" connectable="0" vertex="1" parent="2h3VSlBN1-Aui4E00N1O-126">
          <mxGeometry width="30" height="32" as="geometry" />
        </mxCell>
        <mxCell id="2h3VSlBN1-Aui4E00N1O-128" style="edgeStyle=orthogonalEdgeStyle;rounded=0;orthogonalLoop=1;jettySize=auto;html=1;endArrow=none;endFill=0;dashed=1;dashPattern=8 8;" edge="1" parent="1" source="2h3VSlBN1-Aui4E00N1O-15" target="2h3VSlBN1-Aui4E00N1O-120">
          <mxGeometry relative="1" as="geometry" />
        </mxCell>
        <mxCell id="2h3VSlBN1-Aui4E00N1O-134" style="edgeStyle=orthogonalEdgeStyle;rounded=0;orthogonalLoop=1;jettySize=auto;html=1;endArrow=none;endFill=0;dashed=1;dashPattern=8 8;" edge="1" parent="1" source="2h3VSlBN1-Aui4E00N1O-118" target="2h3VSlBN1-Aui4E00N1O-131">
          <mxGeometry relative="1" as="geometry" />
        </mxCell>
        <mxCell id="2h3VSlBN1-Aui4E00N1O-135" value="&lt;font style=&quot;font-size: 20px;&quot;&gt;&lt;b style=&quot;&quot;&gt;OrnAdminDB&lt;/b&gt;&lt;/font&gt;" style="text;html=1;align=center;verticalAlign=middle;whiteSpace=wrap;rounded=0;" vertex="1" parent="1">
          <mxGeometry x="81" y="867" width="164" height="30" as="geometry" />
        </mxCell>
        <mxCell id="2h3VSlBN1-Aui4E00N1O-138" value="acquisition" style="swimlane;html=1;fontStyle=0;childLayout=stackLayout;horizontal=1;startSize=26;fillColor=#e0e0e0;horizontalStack=0;resizeParent=1;resizeLast=0;collapsible=1;marginBottom=0;swimlaneFillColor=#ffffff;align=center;rounded=0;shadow=0;comic=0;labelBackgroundColor=none;strokeWidth=1;fontFamily=Verdana;fontSize=14" vertex="1" parent="1">
          <mxGeometry x="362" y="1168" width="160" height="171" as="geometry" />
        </mxCell>
        <mxCell id="2h3VSlBN1-Aui4E00N1O-139" value="id" style="shape=partialRectangle;top=0;left=0;right=0;bottom=1;html=1;align=left;verticalAlign=middle;fillColor=none;spacingLeft=34;spacingRight=4;whiteSpace=wrap;overflow=hidden;rotatable=0;points=[[0,0.5],[1,0.5]];portConstraint=eastwest;dropTarget=0;fontStyle=5;" vertex="1" parent="2h3VSlBN1-Aui4E00N1O-138">
          <mxGeometry y="26" width="160" height="30" as="geometry" />
        </mxCell>
        <mxCell id="2h3VSlBN1-Aui4E00N1O-140" value="&lt;b&gt;PK&lt;/b&gt;" style="shape=partialRectangle;top=0;left=0;bottom=0;html=1;fillColor=none;align=left;verticalAlign=middle;spacingLeft=4;spacingRight=4;whiteSpace=wrap;overflow=hidden;rotatable=0;points=[];portConstraint=eastwest;part=1;" connectable="0" vertex="1" parent="2h3VSlBN1-Aui4E00N1O-139">
          <mxGeometry width="30" height="30" as="geometry" />
        </mxCell>
        <mxCell id="2h3VSlBN1-Aui4E00N1O-143" value="admin_id" style="shape=partialRectangle;top=0;left=0;right=0;bottom=1;html=1;align=left;verticalAlign=middle;fillColor=none;spacingLeft=34;spacingRight=4;whiteSpace=wrap;overflow=hidden;rotatable=0;points=[[0,0.5],[1,0.5]];portConstraint=eastwest;dropTarget=0;fontStyle=5;" vertex="1" parent="2h3VSlBN1-Aui4E00N1O-138">
          <mxGeometry y="56" width="160" height="30" as="geometry" />
        </mxCell>
        <mxCell id="2h3VSlBN1-Aui4E00N1O-144" value="&lt;b&gt;FK&lt;/b&gt;" style="shape=partialRectangle;top=0;left=0;bottom=0;html=1;fillColor=none;align=left;verticalAlign=middle;spacingLeft=4;spacingRight=4;whiteSpace=wrap;overflow=hidden;rotatable=0;points=[];portConstraint=eastwest;part=1;" connectable="0" vertex="1" parent="2h3VSlBN1-Aui4E00N1O-143">
          <mxGeometry width="30" height="30" as="geometry" />
        </mxCell>
        <mxCell id="2h3VSlBN1-Aui4E00N1O-145" value="success_messages" style="shape=partialRectangle;top=0;left=0;right=0;bottom=0;html=1;align=left;verticalAlign=top;fillColor=none;spacingLeft=34;spacingRight=4;whiteSpace=wrap;overflow=hidden;rotatable=0;points=[[0,0.5],[1,0.5]];portConstraint=eastwest;dropTarget=0;" vertex="1" parent="2h3VSlBN1-Aui4E00N1O-138">
          <mxGeometry y="86" width="160" height="26" as="geometry" />
        </mxCell>
        <mxCell id="2h3VSlBN1-Aui4E00N1O-146" value="int" style="shape=partialRectangle;top=0;left=0;bottom=0;html=1;fillColor=none;align=left;verticalAlign=top;spacingLeft=4;spacingRight=4;whiteSpace=wrap;overflow=hidden;rotatable=0;points=[];portConstraint=eastwest;part=1;" connectable="0" vertex="1" parent="2h3VSlBN1-Aui4E00N1O-145">
          <mxGeometry width="30" height="26" as="geometry" />
        </mxCell>
        <mxCell id="2h3VSlBN1-Aui4E00N1O-147" value="failed_messages" style="shape=partialRectangle;top=0;left=0;right=0;bottom=0;html=1;align=left;verticalAlign=top;fillColor=none;spacingLeft=34;spacingRight=4;whiteSpace=wrap;overflow=hidden;rotatable=0;points=[[0,0.5],[1,0.5]];portConstraint=eastwest;dropTarget=0;" vertex="1" parent="2h3VSlBN1-Aui4E00N1O-138">
          <mxGeometry y="112" width="160" height="26" as="geometry" />
        </mxCell>
        <mxCell id="2h3VSlBN1-Aui4E00N1O-148" value="int" style="shape=partialRectangle;top=0;left=0;bottom=0;html=1;fillColor=none;align=left;verticalAlign=top;spacingLeft=4;spacingRight=4;whiteSpace=wrap;overflow=hidden;rotatable=0;points=[];portConstraint=eastwest;part=1;" connectable="0" vertex="1" parent="2h3VSlBN1-Aui4E00N1O-147">
          <mxGeometry width="30" height="26" as="geometry" />
        </mxCell>
        <mxCell id="2h3VSlBN1-Aui4E00N1O-149" value="created_at" style="shape=partialRectangle;top=0;left=0;right=0;bottom=0;html=1;align=left;verticalAlign=top;fillColor=none;spacingLeft=34;spacingRight=4;whiteSpace=wrap;overflow=hidden;rotatable=0;points=[[0,0.5],[1,0.5]];portConstraint=eastwest;dropTarget=0;" vertex="1" parent="2h3VSlBN1-Aui4E00N1O-138">
          <mxGeometry y="138" width="160" height="32" as="geometry" />
        </mxCell>
        <mxCell id="2h3VSlBN1-Aui4E00N1O-150" value="tsp" style="shape=partialRectangle;top=0;left=0;bottom=0;html=1;fillColor=none;align=left;verticalAlign=top;spacingLeft=4;spacingRight=4;whiteSpace=wrap;overflow=hidden;rotatable=0;points=[];portConstraint=eastwest;part=1;" connectable="0" vertex="1" parent="2h3VSlBN1-Aui4E00N1O-149">
          <mxGeometry width="30" height="32" as="geometry" />
        </mxCell>
        <mxCell id="2h3VSlBN1-Aui4E00N1O-152" value="&lt;span style=&quot;font-size: 20px;&quot;&gt;&lt;b&gt;OrnAppDB&lt;/b&gt;&lt;/span&gt;" style="text;html=1;align=center;verticalAlign=middle;whiteSpace=wrap;rounded=0;" vertex="1" parent="1">
          <mxGeometry x="137" y="17" width="161" height="30" as="geometry" />
        </mxCell>
        <mxCell id="2h3VSlBN1-Aui4E00N1O-171" style="edgeStyle=orthogonalEdgeStyle;rounded=0;orthogonalLoop=1;jettySize=auto;html=1;endArrow=none;endFill=0;dashed=1;dashPattern=8 8;" edge="1" parent="1" source="2h3VSlBN1-Aui4E00N1O-15" target="2h3VSlBN1-Aui4E00N1O-143">
          <mxGeometry relative="1" as="geometry" />
        </mxCell>
        <mxCell id="2h3VSlBN1-Aui4E00N1O-173" value="Move to Qdrant probably&amp;nbsp;&lt;div&gt;or object storage...&lt;/div&gt;" style="text;html=1;align=left;verticalAlign=middle;whiteSpace=wrap;rounded=0;fontColor=light-dark(#000000,#FFD966);" vertex="1" parent="1">
          <mxGeometry x="864" y="53" width="189" height="30" as="geometry" />
        </mxCell>
        <mxCell id="Rb5hXcDoFv4XiI38R8VY-1" value="handles_metadata" style="swimlane;html=1;fontStyle=0;childLayout=stackLayout;horizontal=1;startSize=26;fillColor=#e0e0e0;horizontalStack=0;resizeParent=1;resizeLast=0;collapsible=1;marginBottom=0;swimlaneFillColor=#ffffff;align=center;rounded=0;shadow=0;comic=0;labelBackgroundColor=none;strokeWidth=1;fontFamily=Verdana;fontSize=14" vertex="1" parent="1">
          <mxGeometry x="829" y="887" width="160" height="141" as="geometry" />
        </mxCell>
        <mxCell id="Rb5hXcDoFv4XiI38R8VY-4" value="&lt;span style=&quot;white-space: pre;&quot;&gt;&#x9;&lt;/span&gt;handle_id" style="shape=partialRectangle;top=0;left=0;right=0;bottom=1;html=1;align=left;verticalAlign=middle;fillColor=none;spacingLeft=34;spacingRight=4;whiteSpace=wrap;overflow=hidden;rotatable=0;points=[[0,0.5],[1,0.5]];portConstraint=eastwest;dropTarget=0;fontStyle=5;" vertex="1" parent="Rb5hXcDoFv4XiI38R8VY-1">
          <mxGeometry y="26" width="160" height="30" as="geometry" />
        </mxCell>
        <mxCell id="Rb5hXcDoFv4XiI38R8VY-5" value="&lt;b&gt;FK|PK&lt;/b&gt;" style="shape=partialRectangle;top=0;left=0;bottom=0;html=1;fillColor=none;align=left;verticalAlign=middle;spacingLeft=4;spacingRight=4;whiteSpace=wrap;overflow=hidden;rotatable=0;points=[];portConstraint=eastwest;part=1;" connectable="0" vertex="1" parent="Rb5hXcDoFv4XiI38R8VY-4">
          <mxGeometry width="48" height="30" as="geometry" />
        </mxCell>
        <mxCell id="Rb5hXcDoFv4XiI38R8VY-6" value="&lt;span style=&quot;white-space: pre;&quot;&gt;&#x9;&lt;/span&gt;metadata" style="shape=partialRectangle;top=0;left=0;right=0;bottom=0;html=1;align=left;verticalAlign=top;fillColor=none;spacingLeft=34;spacingRight=4;whiteSpace=wrap;overflow=hidden;rotatable=0;points=[[0,0.5],[1,0.5]];portConstraint=eastwest;dropTarget=0;" vertex="1" parent="Rb5hXcDoFv4XiI38R8VY-1">
          <mxGeometry y="56" width="160" height="26" as="geometry" />
        </mxCell>
        <mxCell id="Rb5hXcDoFv4XiI38R8VY-7" value="jsonb" style="shape=partialRectangle;top=0;left=0;bottom=0;html=1;fillColor=none;align=left;verticalAlign=top;spacingLeft=4;spacingRight=4;whiteSpace=wrap;overflow=hidden;rotatable=0;points=[];portConstraint=eastwest;part=1;" connectable="0" vertex="1" parent="Rb5hXcDoFv4XiI38R8VY-6">
          <mxGeometry width="48" height="26" as="geometry" />
        </mxCell>
        <mxCell id="Rb5hXcDoFv4XiI38R8VY-8" value="&lt;span style=&quot;white-space: pre;&quot;&gt;&#x9;&lt;/span&gt;updated_at" style="shape=partialRectangle;top=0;left=0;right=0;bottom=0;html=1;align=left;verticalAlign=top;fillColor=none;spacingLeft=34;spacingRight=4;whiteSpace=wrap;overflow=hidden;rotatable=0;points=[[0,0.5],[1,0.5]];portConstraint=eastwest;dropTarget=0;" vertex="1" parent="Rb5hXcDoFv4XiI38R8VY-1">
          <mxGeometry y="82" width="160" height="26" as="geometry" />
        </mxCell>
        <mxCell id="Rb5hXcDoFv4XiI38R8VY-9" value="tsp" style="shape=partialRectangle;top=0;left=0;bottom=0;html=1;fillColor=none;align=left;verticalAlign=top;spacingLeft=4;spacingRight=4;whiteSpace=wrap;overflow=hidden;rotatable=0;points=[];portConstraint=eastwest;part=1;" connectable="0" vertex="1" parent="Rb5hXcDoFv4XiI38R8VY-8">
          <mxGeometry width="48" height="26" as="geometry" />
        </mxCell>
        <mxCell id="Rb5hXcDoFv4XiI38R8VY-10" value="&lt;span style=&quot;white-space: pre;&quot;&gt;&#x9;&lt;/span&gt;created_at" style="shape=partialRectangle;top=0;left=0;right=0;bottom=0;html=1;align=left;verticalAlign=top;fillColor=none;spacingLeft=34;spacingRight=4;whiteSpace=wrap;overflow=hidden;rotatable=0;points=[[0,0.5],[1,0.5]];portConstraint=eastwest;dropTarget=0;" vertex="1" parent="Rb5hXcDoFv4XiI38R8VY-1">
          <mxGeometry y="108" width="160" height="32" as="geometry" />
        </mxCell>
        <mxCell id="Rb5hXcDoFv4XiI38R8VY-11" value="tsp" style="shape=partialRectangle;top=0;left=0;bottom=0;html=1;fillColor=none;align=left;verticalAlign=top;spacingLeft=4;spacingRight=4;whiteSpace=wrap;overflow=hidden;rotatable=0;points=[];portConstraint=eastwest;part=1;" connectable="0" vertex="1" parent="Rb5hXcDoFv4XiI38R8VY-10">
          <mxGeometry width="48" height="32" as="geometry" />
        </mxCell>
        <mxCell id="Rb5hXcDoFv4XiI38R8VY-12" style="edgeStyle=orthogonalEdgeStyle;rounded=0;orthogonalLoop=1;jettySize=auto;html=1;endArrow=none;endFill=0;dashed=1;dashPattern=8 8;" edge="1" parent="1" source="2h3VSlBN1-Aui4E00N1O-60" target="Rb5hXcDoFv4XiI38R8VY-4">
          <mxGeometry relative="1" as="geometry" />
        </mxCell>
        <mxCell id="Rb5hXcDoFv4XiI38R8VY-13" value="acquisition_logs" style="swimlane;html=1;fontStyle=0;childLayout=stackLayout;horizontal=1;startSize=26;fillColor=#e0e0e0;horizontalStack=0;resizeParent=1;resizeLast=0;collapsible=1;marginBottom=0;swimlaneFillColor=#ffffff;align=center;rounded=0;shadow=0;comic=0;labelBackgroundColor=none;strokeWidth=1;fontFamily=Verdana;fontSize=14" vertex="1" parent="1">
          <mxGeometry x="611" y="1284" width="176" height="260" as="geometry" />
        </mxCell>
        <mxCell id="GcFLc4QIcgvgxlIlYkTn-11" value="id" style="shape=partialRectangle;top=0;left=0;right=0;bottom=1;html=1;align=left;verticalAlign=middle;fillColor=none;spacingLeft=34;spacingRight=4;whiteSpace=wrap;overflow=hidden;rotatable=0;points=[[0,0.5],[1,0.5]];portConstraint=eastwest;dropTarget=0;fontStyle=5;" vertex="1" parent="Rb5hXcDoFv4XiI38R8VY-13">
          <mxGeometry y="26" width="176" height="30" as="geometry" />
        </mxCell>
        <mxCell id="GcFLc4QIcgvgxlIlYkTn-12" value="&lt;b&gt;PK&lt;/b&gt;" style="shape=partialRectangle;top=0;left=0;bottom=0;html=1;fillColor=none;align=left;verticalAlign=middle;spacingLeft=4;spacingRight=4;whiteSpace=wrap;overflow=hidden;rotatable=0;points=[];portConstraint=eastwest;part=1;" connectable="0" vertex="1" parent="GcFLc4QIcgvgxlIlYkTn-11">
          <mxGeometry width="30" height="30" as="geometry" />
        </mxCell>
        <mxCell id="Rb5hXcDoFv4XiI38R8VY-25" value="handle_id" style="shape=partialRectangle;top=0;left=0;right=0;bottom=1;html=1;align=left;verticalAlign=middle;fillColor=none;spacingLeft=34;spacingRight=4;whiteSpace=wrap;overflow=hidden;rotatable=0;points=[[0,0.5],[1,0.5]];portConstraint=eastwest;dropTarget=0;fontStyle=5;" vertex="1" parent="Rb5hXcDoFv4XiI38R8VY-13">
          <mxGeometry y="56" width="176" height="30" as="geometry" />
        </mxCell>
        <mxCell id="Rb5hXcDoFv4XiI38R8VY-26" value="&lt;b&gt;FK&lt;/b&gt;" style="shape=partialRectangle;top=0;left=0;bottom=0;html=1;fillColor=none;align=left;verticalAlign=middle;spacingLeft=4;spacingRight=4;whiteSpace=wrap;overflow=hidden;rotatable=0;points=[];portConstraint=eastwest;part=1;" connectable="0" vertex="1" parent="Rb5hXcDoFv4XiI38R8VY-25">
          <mxGeometry width="30" height="30" as="geometry" />
        </mxCell>
        <mxCell id="GcFLc4QIcgvgxlIlYkTn-1" value="acquisition_id" style="shape=partialRectangle;top=0;left=0;right=0;bottom=1;html=1;align=left;verticalAlign=middle;fillColor=none;spacingLeft=34;spacingRight=4;whiteSpace=wrap;overflow=hidden;rotatable=0;points=[[0,0.5],[1,0.5]];portConstraint=eastwest;dropTarget=0;fontStyle=5;" vertex="1" parent="Rb5hXcDoFv4XiI38R8VY-13">
          <mxGeometry y="86" width="176" height="30" as="geometry" />
        </mxCell>
        <mxCell id="GcFLc4QIcgvgxlIlYkTn-2" value="&lt;b&gt;FK&lt;/b&gt;" style="shape=partialRectangle;top=0;left=0;bottom=0;html=1;fillColor=none;align=left;verticalAlign=middle;spacingLeft=4;spacingRight=4;whiteSpace=wrap;overflow=hidden;rotatable=0;points=[];portConstraint=eastwest;part=1;" connectable="0" vertex="1" parent="GcFLc4QIcgvgxlIlYkTn-1">
          <mxGeometry width="30" height="30" as="geometry" />
        </mxCell>
        <mxCell id="Rb5hXcDoFv4XiI38R8VY-42" value="acq_step_id" style="shape=partialRectangle;top=0;left=0;right=0;bottom=1;html=1;align=left;verticalAlign=middle;fillColor=none;spacingLeft=34;spacingRight=4;whiteSpace=wrap;overflow=hidden;rotatable=0;points=[[0,0.5],[1,0.5]];portConstraint=eastwest;dropTarget=0;fontStyle=5;" vertex="1" parent="Rb5hXcDoFv4XiI38R8VY-13">
          <mxGeometry y="116" width="176" height="30" as="geometry" />
        </mxCell>
        <mxCell id="Rb5hXcDoFv4XiI38R8VY-43" value="&lt;b&gt;FK&lt;/b&gt;" style="shape=partialRectangle;top=0;left=0;bottom=0;html=1;fillColor=none;align=left;verticalAlign=middle;spacingLeft=4;spacingRight=4;whiteSpace=wrap;overflow=hidden;rotatable=0;points=[];portConstraint=eastwest;part=1;" connectable="0" vertex="1" parent="Rb5hXcDoFv4XiI38R8VY-42">
          <mxGeometry width="30" height="30" as="geometry" />
        </mxCell>
        <mxCell id="Rb5hXcDoFv4XiI38R8VY-55" value="acq_status_id" style="shape=partialRectangle;top=0;left=0;right=0;bottom=1;html=1;align=left;verticalAlign=middle;fillColor=none;spacingLeft=34;spacingRight=4;whiteSpace=wrap;overflow=hidden;rotatable=0;points=[[0,0.5],[1,0.5]];portConstraint=eastwest;dropTarget=0;fontStyle=5;" vertex="1" parent="Rb5hXcDoFv4XiI38R8VY-13">
          <mxGeometry y="146" width="176" height="30" as="geometry" />
        </mxCell>
        <mxCell id="Rb5hXcDoFv4XiI38R8VY-56" value="&lt;b&gt;FK&lt;/b&gt;" style="shape=partialRectangle;top=0;left=0;bottom=0;html=1;fillColor=none;align=left;verticalAlign=middle;spacingLeft=4;spacingRight=4;whiteSpace=wrap;overflow=hidden;rotatable=0;points=[];portConstraint=eastwest;part=1;" connectable="0" vertex="1" parent="Rb5hXcDoFv4XiI38R8VY-55">
          <mxGeometry width="30" height="30" as="geometry" />
        </mxCell>
        <mxCell id="Rb5hXcDoFv4XiI38R8VY-18" value="&amp;nbsp; &amp;nbsp; video_id" style="shape=partialRectangle;top=0;left=0;right=0;bottom=0;html=1;align=left;verticalAlign=top;fillColor=none;spacingLeft=34;spacingRight=4;whiteSpace=wrap;overflow=hidden;rotatable=0;points=[[0,0.5],[1,0.5]];portConstraint=eastwest;dropTarget=0;" vertex="1" parent="Rb5hXcDoFv4XiI38R8VY-13">
          <mxGeometry y="176" width="176" height="26" as="geometry" />
        </mxCell>
        <mxCell id="Rb5hXcDoFv4XiI38R8VY-19" value="UUID" style="shape=partialRectangle;top=0;left=0;bottom=0;html=1;fillColor=none;align=left;verticalAlign=top;spacingLeft=4;spacingRight=4;whiteSpace=wrap;overflow=hidden;rotatable=0;points=[];portConstraint=eastwest;part=1;" connectable="0" vertex="1" parent="Rb5hXcDoFv4XiI38R8VY-18">
          <mxGeometry width="39" height="26" as="geometry" />
        </mxCell>
        <mxCell id="Rb5hXcDoFv4XiI38R8VY-65" value="&amp;nbsp; &amp;nbsp;description" style="shape=partialRectangle;top=0;left=0;right=0;bottom=0;html=1;align=left;verticalAlign=top;fillColor=none;spacingLeft=34;spacingRight=4;whiteSpace=wrap;overflow=hidden;rotatable=0;points=[[0,0.5],[1,0.5]];portConstraint=eastwest;dropTarget=0;" vertex="1" parent="Rb5hXcDoFv4XiI38R8VY-13">
          <mxGeometry y="202" width="176" height="26" as="geometry" />
        </mxCell>
        <mxCell id="Rb5hXcDoFv4XiI38R8VY-66" value="!str" style="shape=partialRectangle;top=0;left=0;bottom=0;html=1;fillColor=none;align=left;verticalAlign=top;spacingLeft=4;spacingRight=4;whiteSpace=wrap;overflow=hidden;rotatable=0;points=[];portConstraint=eastwest;part=1;" connectable="0" vertex="1" parent="Rb5hXcDoFv4XiI38R8VY-65">
          <mxGeometry width="39" height="26" as="geometry" />
        </mxCell>
        <mxCell id="GcFLc4QIcgvgxlIlYkTn-9" value="&amp;nbsp; &amp;nbsp;created_at" style="shape=partialRectangle;top=0;left=0;right=0;bottom=0;html=1;align=left;verticalAlign=top;fillColor=none;spacingLeft=34;spacingRight=4;whiteSpace=wrap;overflow=hidden;rotatable=0;points=[[0,0.5],[1,0.5]];portConstraint=eastwest;dropTarget=0;" vertex="1" parent="Rb5hXcDoFv4XiI38R8VY-13">
          <mxGeometry y="228" width="176" height="32" as="geometry" />
        </mxCell>
        <mxCell id="GcFLc4QIcgvgxlIlYkTn-10" value="tsp" style="shape=partialRectangle;top=0;left=0;bottom=0;html=1;fillColor=none;align=left;verticalAlign=top;spacingLeft=4;spacingRight=4;whiteSpace=wrap;overflow=hidden;rotatable=0;points=[];portConstraint=eastwest;part=1;" connectable="0" vertex="1" parent="GcFLc4QIcgvgxlIlYkTn-9">
          <mxGeometry width="39" height="32" as="geometry" />
        </mxCell>
        <mxCell id="Rb5hXcDoFv4XiI38R8VY-24" style="edgeStyle=orthogonalEdgeStyle;rounded=0;orthogonalLoop=1;jettySize=auto;html=1;entryX=0;entryY=0.5;entryDx=0;entryDy=0;endArrow=none;endFill=0;dashed=1;dashPattern=8 8;" edge="1" parent="1" source="2h3VSlBN1-Aui4E00N1O-139" target="GcFLc4QIcgvgxlIlYkTn-1">
          <mxGeometry relative="1" as="geometry">
            <Array as="points">
              <mxPoint x="556" y="1209" />
              <mxPoint x="556" y="1385" />
            </Array>
          </mxGeometry>
        </mxCell>
        <mxCell id="Rb5hXcDoFv4XiI38R8VY-28" value="acquisition_steps" style="swimlane;html=1;fontStyle=0;childLayout=stackLayout;horizontal=1;startSize=26;fillColor=#e0e0e0;horizontalStack=0;resizeParent=1;resizeLast=0;collapsible=1;marginBottom=0;swimlaneFillColor=#ffffff;align=center;rounded=0;shadow=0;comic=0;labelBackgroundColor=none;strokeWidth=1;fontFamily=Verdana;fontSize=14" vertex="1" parent="1">
          <mxGeometry x="362" y="1374" width="160" height="170" as="geometry" />
        </mxCell>
        <mxCell id="Rb5hXcDoFv4XiI38R8VY-29" value="id" style="shape=partialRectangle;top=0;left=0;right=0;bottom=1;html=1;align=left;verticalAlign=middle;fillColor=none;spacingLeft=34;spacingRight=4;whiteSpace=wrap;overflow=hidden;rotatable=0;points=[[0,0.5],[1,0.5]];portConstraint=eastwest;dropTarget=0;fontStyle=5;" vertex="1" parent="Rb5hXcDoFv4XiI38R8VY-28">
          <mxGeometry y="26" width="160" height="30" as="geometry" />
        </mxCell>
        <mxCell id="Rb5hXcDoFv4XiI38R8VY-30" value="&lt;b&gt;PK&lt;/b&gt;" style="shape=partialRectangle;top=0;left=0;bottom=0;html=1;fillColor=none;align=left;verticalAlign=middle;spacingLeft=4;spacingRight=4;whiteSpace=wrap;overflow=hidden;rotatable=0;points=[];portConstraint=eastwest;part=1;" connectable="0" vertex="1" parent="Rb5hXcDoFv4XiI38R8VY-29">
          <mxGeometry width="30" height="30" as="geometry" />
        </mxCell>
        <mxCell id="Rb5hXcDoFv4XiI38R8VY-39" value="admin_id" style="shape=partialRectangle;top=0;left=0;right=0;bottom=1;html=1;align=left;verticalAlign=middle;fillColor=none;spacingLeft=34;spacingRight=4;whiteSpace=wrap;overflow=hidden;rotatable=0;points=[[0,0.5],[1,0.5]];portConstraint=eastwest;dropTarget=0;fontStyle=5;" vertex="1" parent="Rb5hXcDoFv4XiI38R8VY-28">
          <mxGeometry y="56" width="160" height="30" as="geometry" />
        </mxCell>
        <mxCell id="Rb5hXcDoFv4XiI38R8VY-40" value="&lt;b&gt;FK&lt;/b&gt;" style="shape=partialRectangle;top=0;left=0;bottom=0;html=1;fillColor=none;align=left;verticalAlign=middle;spacingLeft=4;spacingRight=4;whiteSpace=wrap;overflow=hidden;rotatable=0;points=[];portConstraint=eastwest;part=1;" connectable="0" vertex="1" parent="Rb5hXcDoFv4XiI38R8VY-39">
          <mxGeometry width="30" height="30" as="geometry" />
        </mxCell>
        <mxCell id="Rb5hXcDoFv4XiI38R8VY-33" value="acq_step" style="shape=partialRectangle;top=0;left=0;right=0;bottom=0;html=1;align=left;verticalAlign=top;fillColor=none;spacingLeft=34;spacingRight=4;whiteSpace=wrap;overflow=hidden;rotatable=0;points=[[0,0.5],[1,0.5]];portConstraint=eastwest;dropTarget=0;" vertex="1" parent="Rb5hXcDoFv4XiI38R8VY-28">
          <mxGeometry y="86" width="160" height="26" as="geometry" />
        </mxCell>
        <mxCell id="Rb5hXcDoFv4XiI38R8VY-34" value="int" style="shape=partialRectangle;top=0;left=0;bottom=0;html=1;fillColor=none;align=left;verticalAlign=top;spacingLeft=4;spacingRight=4;whiteSpace=wrap;overflow=hidden;rotatable=0;points=[];portConstraint=eastwest;part=1;" connectable="0" vertex="1" parent="Rb5hXcDoFv4XiI38R8VY-33">
          <mxGeometry width="30" height="26" as="geometry" />
        </mxCell>
        <mxCell id="Rb5hXcDoFv4XiI38R8VY-63" value="description" style="shape=partialRectangle;top=0;left=0;right=0;bottom=0;html=1;align=left;verticalAlign=top;fillColor=none;spacingLeft=34;spacingRight=4;whiteSpace=wrap;overflow=hidden;rotatable=0;points=[[0,0.5],[1,0.5]];portConstraint=eastwest;dropTarget=0;" vertex="1" parent="Rb5hXcDoFv4XiI38R8VY-28">
          <mxGeometry y="112" width="160" height="26" as="geometry" />
        </mxCell>
        <mxCell id="Rb5hXcDoFv4XiI38R8VY-64" value="!str" style="shape=partialRectangle;top=0;left=0;bottom=0;html=1;fillColor=none;align=left;verticalAlign=top;spacingLeft=4;spacingRight=4;whiteSpace=wrap;overflow=hidden;rotatable=0;points=[];portConstraint=eastwest;part=1;" connectable="0" vertex="1" parent="Rb5hXcDoFv4XiI38R8VY-63">
          <mxGeometry width="30" height="26" as="geometry" />
        </mxCell>
        <mxCell id="Rb5hXcDoFv4XiI38R8VY-37" value="created_at" style="shape=partialRectangle;top=0;left=0;right=0;bottom=0;html=1;align=left;verticalAlign=top;fillColor=none;spacingLeft=34;spacingRight=4;whiteSpace=wrap;overflow=hidden;rotatable=0;points=[[0,0.5],[1,0.5]];portConstraint=eastwest;dropTarget=0;" vertex="1" parent="Rb5hXcDoFv4XiI38R8VY-28">
          <mxGeometry y="138" width="160" height="32" as="geometry" />
        </mxCell>
        <mxCell id="Rb5hXcDoFv4XiI38R8VY-38" value="tsp" style="shape=partialRectangle;top=0;left=0;bottom=0;html=1;fillColor=none;align=left;verticalAlign=top;spacingLeft=4;spacingRight=4;whiteSpace=wrap;overflow=hidden;rotatable=0;points=[];portConstraint=eastwest;part=1;" connectable="0" vertex="1" parent="Rb5hXcDoFv4XiI38R8VY-37">
          <mxGeometry width="30" height="32" as="geometry" />
        </mxCell>
        <mxCell id="Rb5hXcDoFv4XiI38R8VY-41" style="edgeStyle=orthogonalEdgeStyle;rounded=0;orthogonalLoop=1;jettySize=auto;html=1;endArrow=none;endFill=0;entryX=0;entryY=0.5;entryDx=0;entryDy=0;dashed=1;dashPattern=8 8;" edge="1" parent="1" source="2h3VSlBN1-Aui4E00N1O-15" target="Rb5hXcDoFv4XiI38R8VY-39">
          <mxGeometry relative="1" as="geometry" />
        </mxCell>
        <mxCell id="Rb5hXcDoFv4XiI38R8VY-44" style="edgeStyle=orthogonalEdgeStyle;rounded=0;orthogonalLoop=1;jettySize=auto;html=1;entryX=0;entryY=0.5;entryDx=0;entryDy=0;exitX=1;exitY=0.5;exitDx=0;exitDy=0;endArrow=none;endFill=0;dashed=1;dashPattern=8 8;" edge="1" parent="1" source="Rb5hXcDoFv4XiI38R8VY-29" target="Rb5hXcDoFv4XiI38R8VY-42">
          <mxGeometry relative="1" as="geometry">
            <Array as="points">
              <mxPoint x="555" y="1415" />
            </Array>
          </mxGeometry>
        </mxCell>
        <mxCell id="Rb5hXcDoFv4XiI38R8VY-45" style="edgeStyle=orthogonalEdgeStyle;rounded=0;orthogonalLoop=1;jettySize=auto;html=1;entryX=0;entryY=0.5;entryDx=0;entryDy=0;endArrow=none;endFill=0;dashed=1;dashPattern=8 8;" edge="1" parent="1" source="2h3VSlBN1-Aui4E00N1O-60" target="Rb5hXcDoFv4XiI38R8VY-25">
          <mxGeometry relative="1" as="geometry">
            <Array as="points">
              <mxPoint x="801" y="928" />
              <mxPoint x="801" y="1116" />
              <mxPoint x="591" y="1116" />
              <mxPoint x="591" y="1355" />
              <mxPoint x="612" y="1355" />
            </Array>
          </mxGeometry>
        </mxCell>
        <mxCell id="Rb5hXcDoFv4XiI38R8VY-46" value="acquisition_status" style="swimlane;html=1;fontStyle=0;childLayout=stackLayout;horizontal=1;startSize=26;fillColor=#e0e0e0;horizontalStack=0;resizeParent=1;resizeLast=0;collapsible=1;marginBottom=0;swimlaneFillColor=#ffffff;align=center;rounded=0;shadow=0;comic=0;labelBackgroundColor=none;strokeWidth=1;fontFamily=Verdana;fontSize=14" vertex="1" parent="1">
          <mxGeometry x="361" y="1600" width="160" height="174" as="geometry" />
        </mxCell>
        <mxCell id="Rb5hXcDoFv4XiI38R8VY-47" value="id" style="shape=partialRectangle;top=0;left=0;right=0;bottom=1;html=1;align=left;verticalAlign=middle;fillColor=none;spacingLeft=34;spacingRight=4;whiteSpace=wrap;overflow=hidden;rotatable=0;points=[[0,0.5],[1,0.5]];portConstraint=eastwest;dropTarget=0;fontStyle=5;" vertex="1" parent="Rb5hXcDoFv4XiI38R8VY-46">
          <mxGeometry y="26" width="160" height="30" as="geometry" />
        </mxCell>
        <mxCell id="Rb5hXcDoFv4XiI38R8VY-48" value="&lt;b&gt;PK&lt;/b&gt;" style="shape=partialRectangle;top=0;left=0;bottom=0;html=1;fillColor=none;align=left;verticalAlign=middle;spacingLeft=4;spacingRight=4;whiteSpace=wrap;overflow=hidden;rotatable=0;points=[];portConstraint=eastwest;part=1;" connectable="0" vertex="1" parent="Rb5hXcDoFv4XiI38R8VY-47">
          <mxGeometry width="30" height="30" as="geometry" />
        </mxCell>
        <mxCell id="Rb5hXcDoFv4XiI38R8VY-49" value="admin_id" style="shape=partialRectangle;top=0;left=0;right=0;bottom=1;html=1;align=left;verticalAlign=middle;fillColor=none;spacingLeft=34;spacingRight=4;whiteSpace=wrap;overflow=hidden;rotatable=0;points=[[0,0.5],[1,0.5]];portConstraint=eastwest;dropTarget=0;fontStyle=5;" vertex="1" parent="Rb5hXcDoFv4XiI38R8VY-46">
          <mxGeometry y="56" width="160" height="30" as="geometry" />
        </mxCell>
        <mxCell id="Rb5hXcDoFv4XiI38R8VY-50" value="&lt;b&gt;FK&lt;/b&gt;" style="shape=partialRectangle;top=0;left=0;bottom=0;html=1;fillColor=none;align=left;verticalAlign=middle;spacingLeft=4;spacingRight=4;whiteSpace=wrap;overflow=hidden;rotatable=0;points=[];portConstraint=eastwest;part=1;" connectable="0" vertex="1" parent="Rb5hXcDoFv4XiI38R8VY-49">
          <mxGeometry width="30" height="30" as="geometry" />
        </mxCell>
        <mxCell id="Rb5hXcDoFv4XiI38R8VY-60" value="acq_step_id" style="shape=partialRectangle;top=0;left=0;right=0;bottom=1;html=1;align=left;verticalAlign=middle;fillColor=none;spacingLeft=34;spacingRight=4;whiteSpace=wrap;overflow=hidden;rotatable=0;points=[[0,0.5],[1,0.5]];portConstraint=eastwest;dropTarget=0;fontStyle=5;" vertex="1" parent="Rb5hXcDoFv4XiI38R8VY-46">
          <mxGeometry y="86" width="160" height="30" as="geometry" />
        </mxCell>
        <mxCell id="Rb5hXcDoFv4XiI38R8VY-61" value="&lt;b&gt;FK&lt;/b&gt;" style="shape=partialRectangle;top=0;left=0;bottom=0;html=1;fillColor=none;align=left;verticalAlign=middle;spacingLeft=4;spacingRight=4;whiteSpace=wrap;overflow=hidden;rotatable=0;points=[];portConstraint=eastwest;part=1;" connectable="0" vertex="1" parent="Rb5hXcDoFv4XiI38R8VY-60">
          <mxGeometry width="30" height="30" as="geometry" />
        </mxCell>
        <mxCell id="Rb5hXcDoFv4XiI38R8VY-51" value="acq_status" style="shape=partialRectangle;top=0;left=0;right=0;bottom=0;html=1;align=left;verticalAlign=top;fillColor=none;spacingLeft=34;spacingRight=4;whiteSpace=wrap;overflow=hidden;rotatable=0;points=[[0,0.5],[1,0.5]];portConstraint=eastwest;dropTarget=0;" vertex="1" parent="Rb5hXcDoFv4XiI38R8VY-46">
          <mxGeometry y="116" width="160" height="26" as="geometry" />
        </mxCell>
        <mxCell id="Rb5hXcDoFv4XiI38R8VY-52" value="int" style="shape=partialRectangle;top=0;left=0;bottom=0;html=1;fillColor=none;align=left;verticalAlign=top;spacingLeft=4;spacingRight=4;whiteSpace=wrap;overflow=hidden;rotatable=0;points=[];portConstraint=eastwest;part=1;" connectable="0" vertex="1" parent="Rb5hXcDoFv4XiI38R8VY-51">
          <mxGeometry width="30" height="26" as="geometry" />
        </mxCell>
        <mxCell id="Rb5hXcDoFv4XiI38R8VY-53" value="created_at" style="shape=partialRectangle;top=0;left=0;right=0;bottom=0;html=1;align=left;verticalAlign=top;fillColor=none;spacingLeft=34;spacingRight=4;whiteSpace=wrap;overflow=hidden;rotatable=0;points=[[0,0.5],[1,0.5]];portConstraint=eastwest;dropTarget=0;" vertex="1" parent="Rb5hXcDoFv4XiI38R8VY-46">
          <mxGeometry y="142" width="160" height="32" as="geometry" />
        </mxCell>
        <mxCell id="Rb5hXcDoFv4XiI38R8VY-54" value="tsp" style="shape=partialRectangle;top=0;left=0;bottom=0;html=1;fillColor=none;align=left;verticalAlign=top;spacingLeft=4;spacingRight=4;whiteSpace=wrap;overflow=hidden;rotatable=0;points=[];portConstraint=eastwest;part=1;" connectable="0" vertex="1" parent="Rb5hXcDoFv4XiI38R8VY-53">
          <mxGeometry width="30" height="32" as="geometry" />
        </mxCell>
        <mxCell id="Rb5hXcDoFv4XiI38R8VY-59" style="edgeStyle=orthogonalEdgeStyle;rounded=0;orthogonalLoop=1;jettySize=auto;html=1;endArrow=none;endFill=0;exitX=1;exitY=0.5;exitDx=0;exitDy=0;entryX=0;entryY=0.5;entryDx=0;entryDy=0;dashed=1;dashPattern=8 8;" edge="1" parent="1" source="Rb5hXcDoFv4XiI38R8VY-47" target="Rb5hXcDoFv4XiI38R8VY-55">
          <mxGeometry relative="1" as="geometry">
            <Array as="points">
              <mxPoint x="579" y="1641" />
              <mxPoint x="579" y="1448" />
              <mxPoint x="611" y="1448" />
            </Array>
          </mxGeometry>
        </mxCell>
        <mxCell id="Rb5hXcDoFv4XiI38R8VY-62" style="edgeStyle=orthogonalEdgeStyle;rounded=0;orthogonalLoop=1;jettySize=auto;html=1;entryX=0;entryY=0.5;entryDx=0;entryDy=0;endArrow=none;endFill=0;dashed=1;dashPattern=8 8;" edge="1" parent="1" source="Rb5hXcDoFv4XiI38R8VY-29" target="Rb5hXcDoFv4XiI38R8VY-60">
          <mxGeometry relative="1" as="geometry" />
        </mxCell>
        <mxCell id="GcFLc4QIcgvgxlIlYkTn-7" value="" style="edgeStyle=orthogonalEdgeStyle;rounded=0;orthogonalLoop=1;jettySize=auto;html=1;endArrow=none;endFill=0;entryX=0;entryY=0.5;entryDx=0;entryDy=0;dashed=1;dashPattern=8 8;exitX=1;exitY=0.5;exitDx=0;exitDy=0;" edge="1" parent="1" source="2h3VSlBN1-Aui4E00N1O-15" target="Rb5hXcDoFv4XiI38R8VY-49">
          <mxGeometry relative="1" as="geometry">
            <mxPoint x="310" y="1317" as="sourcePoint" />
            <mxPoint x="417" y="1775" as="targetPoint" />
            <Array as="points">
              <mxPoint x="309" y="988" />
              <mxPoint x="309" y="1671" />
            </Array>
          </mxGeometry>
        </mxCell>
      </root>
    </mxGraphModel>
  </diagram>
</mxfile>
